<?xml version="1.0" encoding="UTF-8" standalone="no"?>
<!DOCTYPE svg PUBLIC "-//W3C//DTD SVG 1.1//EN" "http://www.w3.org/Graphics/SVG/1.1/DTD/svg11.dtd">
<svg width="100%" height="100%" viewBox="0 0 113 113" version="1.1" xmlns="http://www.w3.org/2000/svg" xmlns:xlink="http://www.w3.org/1999/xlink" xml:space="preserve" style="fill-rule:evenodd;clip-rule:evenodd;stroke-linejoin:round;stroke-miterlimit:1.41421;">
    <g transform="matrix(0.985915,0,0,0.985915,-687.394,-543.166)">
        <path d="M754.521,556.232C725.848,556.232 702.521,579.559 702.521,608.232C702.521,636.905 725.848,660.232 754.521,660.232C783.194,660.232 806.521,636.905 806.521,608.232C806.521,579.559 783.194,556.232 754.521,556.232M754.521,665.032C723.201,665.032 697.721,639.552 697.721,608.232C697.721,576.912 723.201,551.432 754.521,551.432C785.841,551.432 811.321,576.912 811.321,608.232C811.321,639.552 785.841,665.032 754.521,665.032" style="fill:rgb(253,104,28);fill-rule:nonzero;"/>
        <path d="M785.464,631.838C783.467,631.165 781.311,630.564 779.031,630.041C781.055,624.104 782.226,617.464 782.441,610.544L795.038,610.544C794.597,618.712 791.728,626.245 787.144,632.434C786.606,632.232 786.047,632.035 785.464,631.838M770.058,645.814C771.68,644.064 773.203,642.028 774.592,639.717C775.618,638.015 776.548,636.197 777.383,634.288C779.754,634.812 781.979,635.42 784.026,636.11C784.038,636.113 784.048,636.118 784.061,636.12C780.157,640.268 775.394,643.593 770.058,645.814M756.827,648.648L756.827,632.02C762.465,632.127 767.884,632.603 772.834,633.418C772.189,634.804 771.488,636.133 770.731,637.391C766.875,643.802 762.007,647.716 756.827,648.648M752.318,621.285L752.318,627.506C745.94,627.608 739.801,628.169 734.235,629.144C732.251,623.535 731.097,617.192 730.877,610.544L741.468,610.544L741.468,606.035L730.872,606.035C731.077,599.375 732.221,593.017 734.197,587.391C739.773,588.371 745.925,588.934 752.318,589.034L752.318,595.178L756.827,595.178L756.827,589.029C763.098,588.914 769.133,588.353 774.611,587.391C776.588,593.017 777.732,599.375 777.937,606.035L767.575,606.035L767.575,610.544L777.932,610.544C777.712,617.192 776.556,623.535 774.572,629.144C769.105,628.186 763.083,627.628 756.827,627.511L756.827,621.285L752.318,621.285ZM752.318,648.705C747.012,647.882 742.019,643.942 738.078,637.391C737.321,636.133 736.62,634.807 735.975,633.418C741.022,632.588 746.56,632.107 752.318,632.015L752.318,648.705ZM724.928,636.06C726.934,635.392 729.113,634.802 731.426,634.291C732.261,636.197 733.19,638.015 734.215,639.717C735.563,641.955 737.031,643.939 738.599,645.652C733.395,643.423 728.749,640.136 724.928,636.06M721.849,632.364C717.293,626.187 714.441,618.682 714.003,610.544L726.366,610.544C726.583,617.464 727.754,624.104 729.778,630.041C727.497,630.564 725.341,631.165 723.342,631.838C722.826,632.01 722.33,632.187 721.849,632.364M721.914,584.201C722.375,584.37 722.849,584.537 723.342,584.704C725.331,585.372 727.475,585.97 729.741,586.491C727.724,592.448 726.563,599.101 726.361,606.035L714.008,606.035C714.464,597.887 717.335,590.375 721.914,584.201M738.258,571.155C736.817,572.78 735.464,574.632 734.215,576.708C733.17,578.443 732.226,580.295 731.378,582.241C729.113,581.74 726.981,581.16 725.01,580.507C728.729,576.563 733.228,573.365 738.258,571.155M751.55,567.859C751.807,567.84 752.061,567.825 752.318,567.81L752.318,584.527C746.54,584.432 740.987,583.951 735.925,583.116C736.583,581.688 737.301,580.325 738.078,579.033C741.827,572.8 746.53,568.926 751.55,567.859M756.827,567.822C756.934,567.827 757.042,567.83 757.149,567.837C762.209,568.871 766.954,572.755 770.731,579.033C771.508,580.325 772.224,581.688 772.884,583.116C767.919,583.934 762.483,584.415 756.827,584.522L756.827,567.822ZM783.976,580.449C781.957,581.127 779.761,581.725 777.428,582.241C776.583,580.295 775.636,578.443 774.592,576.708C773.3,574.562 771.897,572.653 770.404,570.988C775.561,573.191 780.172,576.434 783.976,580.449M787.077,584.133C791.688,590.32 794.577,597.857 795.033,606.035L782.446,606.035C782.244,599.101 781.082,592.448 779.066,586.491C781.334,585.97 783.477,585.372 785.464,584.704C786.022,584.517 786.561,584.325 787.077,584.133M757.739,563.358C756.643,563.154 755.529,563.049 754.404,563.049C753.223,563.049 752.056,563.164 750.905,563.388C727.729,565.235 709.434,584.684 709.434,608.328C709.434,633.189 729.658,653.416 754.522,653.416C779.382,653.416 799.607,633.189 799.607,608.328C799.607,584.549 781.105,565.013 757.739,563.358" style="fill:rgb(253,104,28);fill-rule:nonzero;"/>
        <path d="M754.523,604.962L757.499,601.991L764.922,601.991L764.922,597.858L744.119,597.858L744.119,601.991L751.544,601.991L754.523,604.962Z" style="fill:rgb(253,104,28);fill-rule:nonzero;"/>
        <path d="M763.13,614.956L763.13,611.544L764.922,609.759L764.922,606.038L757.985,606.038L757.985,613.338C757.985,613.981 757.464,614.502 756.816,614.502L752.223,614.502C751.58,614.502 751.059,613.981 751.059,613.338L751.059,606.038L744.119,606.038L744.119,609.759L745.914,611.544L745.914,614.956C745.914,616.975 747.552,618.608 749.573,618.608L759.471,618.608C761.492,618.608 763.13,616.975 763.13,614.956" style="fill:rgb(253,104,28);fill-rule:nonzero;"/>
    </g>
</svg>
