<?xml version="1.0" encoding="UTF-8" standalone="no"?>
<!DOCTYPE svg PUBLIC "-//W3C//DTD SVG 1.1//EN" "http://www.w3.org/Graphics/SVG/1.1/DTD/svg11.dtd">
<svg width="100%" height="100%" viewBox="0 0 113 113" version="1.1" xmlns="http://www.w3.org/2000/svg" xmlns:xlink="http://www.w3.org/1999/xlink" xml:space="preserve" style="fill-rule:evenodd;clip-rule:evenodd;stroke-linejoin:round;stroke-miterlimit:1.41421;">
    <g transform="matrix(0.985915,0,0,0.985915,-687.347,-1018.38)">
        <path d="M754.473,1038.23C725.8,1038.23 702.473,1061.56 702.473,1090.23C702.473,1118.9 725.8,1142.23 754.473,1142.23C783.146,1142.23 806.473,1118.9 806.473,1090.23C806.473,1061.56 783.146,1038.23 754.473,1038.23M754.473,1147.03C723.153,1147.03 697.673,1121.55 697.673,1090.23C697.673,1058.91 723.153,1033.43 754.473,1033.43C785.793,1033.43 811.273,1058.91 811.273,1090.23C811.273,1121.55 785.793,1147.03 754.473,1147.03" style="fill:rgb(253,104,28);fill-rule:nonzero;"/>
        <path d="M786.867,1057.84C768.976,1039.95 739.97,1039.95 722.08,1057.84C704.188,1075.73 704.188,1104.74 722.079,1122.63C739.969,1140.52 768.976,1140.52 786.867,1122.62C804.758,1104.74 804.758,1075.73 786.867,1057.84M775.003,1115.37L760.328,1102.66C756.63,1104.4 752.317,1104.4 748.618,1102.66L733.943,1115.37C733.414,1115.83 732.584,1115.8 732.088,1115.31L729.4,1112.62C728.904,1112.12 728.875,1111.29 729.333,1110.76L742.048,1096.09C740.305,1092.39 740.305,1088.08 742.049,1084.38L729.333,1069.7C728.875,1069.17 728.905,1068.34 729.4,1067.85L732.089,1065.16C732.585,1064.66 733.414,1064.63 733.943,1065.09L748.619,1077.81C752.316,1076.07 756.629,1076.07 760.328,1077.81L775.002,1065.09C775.532,1064.63 776.362,1064.66 776.857,1065.16L779.546,1067.85C780.041,1068.34 780.071,1069.17 779.612,1069.7L766.898,1084.38C768.64,1088.08 768.64,1092.39 766.898,1096.09L779.613,1110.76C780.071,1111.29 780.041,1112.12 779.546,1112.62L776.856,1115.31C776.362,1115.8 775.532,1115.83 775.003,1115.37" style="fill:rgb(242,111,34);fill-rule:nonzero;"/>
    </g>
</svg>
