<?xml version="1.0" encoding="UTF-8" standalone="no"?>
<!DOCTYPE svg PUBLIC "-//W3C//DTD SVG 1.1//EN" "http://www.w3.org/Graphics/SVG/1.1/DTD/svg11.dtd">
<svg width="100%" height="100%" viewBox="0 0 113 113" version="1.1" xmlns="http://www.w3.org/2000/svg" xmlns:xlink="http://www.w3.org/1999/xlink" xml:space="preserve" style="fill-rule:evenodd;clip-rule:evenodd;stroke-linejoin:round;stroke-miterlimit:1.41421;">
    <g transform="matrix(1,0,0,1,0.8,0.8)">
        <g transform="matrix(0.985915,0,0,0.985915,-688.494,-274.252)">
            <path d="M766.496,344.401L765.869,344.499C763.305,344.845 761.427,345.884 760.281,347.575C759.356,348.906 759.094,350.412 759.094,351.747C759.081,352.797 759.269,353.727 759.423,354.402L759.473,354.583L759.544,354.729C761.264,358.57 764.663,361.375 766.348,362.596L766.356,363.787L737.856,363.816L737.86,362.987C741.232,361.136 745.677,357.133 745.667,351.409C745.673,350.485 745.56,349.516 745.31,348.5C743.115,339.79 726.601,335.368 720.99,334.104L720.992,332.271L763.955,332.221C763.949,332.232 763.959,334.393 763.959,334.393C763.959,334.393 770.03,334.387 772.369,334.385C772.374,334.398 772.374,336.541 772.374,336.541C772.374,336.541 786.767,336.52 789.46,336.524C783.293,342.212 774.206,343.422 769.066,344.074M794.263,334.204C793.705,333.104 792.584,332.465 791.162,332.461C791.162,332.461 779.571,332.482 776.431,332.467C776.441,332.467 776.437,330.322 776.437,330.322C776.437,330.322 770.36,330.318 768.01,330.328C768.016,330.307 768.027,328.154 768.027,328.154L716.925,328.206L716.931,337.413L718.593,337.742C726.639,339.302 739.945,343.882 741.362,349.485C743.072,356.241 735.332,359.722 735.013,359.87L733.793,360.396L733.78,361.721L733.795,367.896L770.426,367.838L770.412,360.386L769.445,359.78C769.404,359.755 765.121,357.072 763.341,353.248C763.251,352.869 763.145,352.345 763.159,351.736C763.143,351.082 763.259,350.408 763.624,349.858C764.107,349.156 765.053,348.71 766.406,348.533L767.031,348.46C772.986,347.671 786.938,345.834 793.703,338.013L793.757,337.942L793.809,337.87C794.332,337.155 794.6,336.362 794.6,335.587C794.59,335.099 794.611,334.843 794.38,334.416M723.635,323.871C723.635,323.871 723.629,323.882 724.983,325.223L730.958,325.221C728.242,322.736 726.647,321.393 725.824,320.702C728.961,320.76 735.209,320.87 735.209,320.87C735.209,320.87 733.026,316.224 732.137,314.355C735.32,315.259 741.122,316.886 741.122,316.886C741.122,316.886 741.566,312.139 741.786,309.878C744.275,311.494 749.12,314.649 749.12,314.649C749.12,314.649 752.067,310.367 753.521,308.224C754.989,310.344 757.936,314.63 757.936,314.63C757.936,314.63 762.78,311.465 765.267,309.848C765.49,312.112 765.952,316.861 765.952,316.861C765.952,316.861 771.749,315.218 774.91,314.297C774.058,316.167 771.882,320.837 771.882,320.837C771.882,320.837 778.12,320.712 781.254,320.647C780.454,321.316 778.845,322.663 774.794,326.525L780.763,326.521L783.468,323.809C785.574,322.024 792.018,316.592 792.018,316.592C792.018,316.592 781.306,316.798 777.962,316.869C778.997,314.647 781.958,308.303 781.958,308.303C781.958,308.303 772.13,311.108 769.314,311.919C769.095,309.607 768.483,303.161 768.483,303.161C768.483,303.161 761.054,308.022 758.963,309.371C757.667,307.464 753.521,301.436 753.521,301.436C753.521,301.436 749.39,307.482 748.089,309.384C746.004,308.024 738.544,303.2 738.544,303.2C738.544,303.2 737.95,309.638 737.75,311.96C734.938,311.152 725.093,308.368 725.093,308.368C725.093,308.368 728.08,314.714 729.117,316.93C725.764,316.855 715.05,316.68 715.05,316.68C715.05,316.68 720.457,321.216 722.575,322.986" style="fill:rgb(253,104,28);fill-rule:nonzero;"/>
        </g>
        <g transform="matrix(0.985915,0,0,0.985915,-688.494,-274.253)">
            <path d="M754.826,282.666C726.153,282.666 702.826,305.993 702.826,334.666C702.826,363.339 726.153,386.666 754.826,386.666C783.499,386.666 806.826,363.339 806.826,334.666C806.826,305.993 783.499,282.666 754.826,282.666M754.826,391.466C723.506,391.466 698.026,365.986 698.026,334.666C698.026,303.346 723.506,277.866 754.826,277.866C786.146,277.866 811.626,303.346 811.626,334.666C811.626,365.986 786.146,391.466 754.826,391.466" style="fill:rgb(253,104,28);fill-rule:nonzero;"/>
        </g>
    </g>
</svg>
