<svg width="100%" height="100%" viewBox="0 0 1364 215" version="1.1" xmlns="http://www.w3.org/2000/svg" xmlns:xlink="http://www.w3.org/1999/xlink" xml:space="preserve" style="fill-rule:evenodd;clip-rule:evenodd;stroke-linejoin:round;stroke-miterlimit:1.41421;">
    <g transform="matrix(8.33333,0,0,8.33333,-33778,-12122.4)">
        <clipPath id="_clip1">
            <rect x="4053.36" y="1454.71" width="163.66" height="25.743"/>
        </clipPath>
        <g clip-path="url(#_clip1)">
            <path d="M4085.89,1455.22L4085.89,1479.95L4096.94,1479.95L4096.94,1475.83L4090.88,1475.83L4090.88,1469.26L4096.76,1469.26L4096.76,1465.14L4090.88,1465.14L4090.88,1459.34L4096.94,1459.34L4096.94,1455.22L4085.89,1455.22ZM4086.59,1455.92L4096.24,1455.92L4096.24,1458.64L4090.88,1458.64L4090.18,1458.64L4090.18,1465.84L4096.06,1465.84L4096.06,1468.56L4090.88,1468.56L4090.18,1468.56L4090.18,1476.53L4096.24,1476.53L4096.24,1479.25L4086.59,1479.25L4086.59,1455.92Z" style="fill:rgb(89,89,92);fill-rule:nonzero;"/>
            <path d="M4109.28,1455.22L4106.86,1461.28L4104.47,1455.22L4099.48,1455.22L4104.38,1467.59L4099.48,1479.95L4104.47,1479.95L4106.86,1473.89L4109.28,1479.95L4114.27,1479.95L4109.36,1467.59L4114.27,1455.22L4109.28,1455.22ZM4107.51,1461.54L4109.75,1455.92L4113.23,1455.92L4108.71,1467.33L4108.61,1467.59L4108.71,1467.84L4113.23,1479.25L4109.75,1479.25L4107.51,1473.63L4106.85,1471.99L4106.21,1473.63L4103.99,1479.25L4100.51,1479.25L4105.03,1467.84L4105.13,1467.59L4105.03,1467.33L4100.51,1455.92L4103.99,1455.92L4106.21,1461.54L4106.85,1463.18L4107.51,1461.54Z" style="fill:rgb(89,89,92);fill-rule:nonzero;"/>
            <path d="M4123.5,1455.41C4127.44,1455.41 4129.79,1457.06 4129.79,1459.82L4129.79,1475.68C4129.79,1479.23 4125.87,1479.76 4123.53,1479.76C4121.19,1479.76 4117.27,1479.23 4117.27,1475.68L4117.27,1459.82C4117.27,1457.06 4119.6,1455.41 4123.5,1455.41M4123.53,1477.04C4125.13,1477.04 4126.2,1476.04 4126.2,1474.54L4126.2,1460.66C4126.2,1459.17 4125.09,1458.13 4123.5,1458.13C4121.95,1458.13 4120.86,1459.16 4120.86,1460.63L4120.86,1474.51C4120.86,1476 4121.96,1477.04 4123.53,1477.04M4123.5,1454.71C4119.26,1454.71 4116.57,1456.62 4116.57,1459.82L4116.57,1475.68C4116.57,1478.87 4119.29,1480.46 4123.53,1480.46C4127.8,1480.46 4130.49,1478.87 4130.49,1475.68L4130.49,1459.82C4130.49,1456.62 4127.77,1454.71 4123.5,1454.71M4123.53,1476.34C4122.31,1476.34 4121.56,1475.56 4121.56,1474.51L4121.56,1460.63C4121.56,1459.58 4122.28,1458.84 4123.5,1458.84C4124.76,1458.84 4125.5,1459.61 4125.5,1460.66L4125.5,1474.54C4125.5,1475.59 4124.78,1476.34 4123.53,1476.34" style="fill:rgb(89,89,92);fill-rule:nonzero;"/>
            <path d="M4134.2,1455.22L4134.2,1479.95L4139.18,1479.95L4139.18,1469.26L4144.02,1469.26L4144.02,1465.14L4139.18,1465.14L4139.18,1459.34L4144.2,1459.34L4144.2,1455.22L4134.2,1455.22Z" style="fill:rgb(89,89,92);fill-rule:nonzero;"/>
            <path d="M4156.27,1475.44L4156.27,1471.44C4156.27,1470.06 4155.88,1469.26 4154.62,1469.26L4152.33,1469.26L4152.33,1479.95L4147.34,1479.95L4147.34,1455.22L4157.04,1455.22C4161.17,1455.22 4161.26,1458.15 4161.26,1460.72L4161.26,1461.43C4161.26,1463.88 4161.17,1466.9 4157.07,1467.29C4161.17,1467.62 4161.26,1470.33 4161.26,1472.75L4161.26,1476.45C4161.26,1477.83 4161.29,1479.32 4161.52,1479.95L4156.6,1479.95C4156.27,1479.17 4156.27,1477.02 4156.27,1475.44M4152.33,1459.34L4152.33,1465.14L4154.62,1465.14C4155.88,1465.14 4156.27,1464.36 4156.27,1462.99L4156.27,1461.49C4156.27,1460.12 4155.88,1459.34 4154.62,1459.34L4152.33,1459.34Z" style="fill:rgb(89,89,92);fill-rule:nonzero;"/>
        </g>
    </g>
    <g transform="matrix(8.33333,0,0,8.33333,-33778,-12122.4)">
        <path d="M4167.49,1455.22L4164.23,1479.95L4169.22,1479.95L4169.82,1474.93L4173.82,1474.93L4174.45,1479.95L4179.41,1479.95L4176.15,1455.22L4167.49,1455.22ZM4171.82,1458.63L4173.31,1470.81L4170.33,1470.81L4171.82,1458.63Z" style="fill:rgb(89,89,92);fill-rule:nonzero;"/>
    </g>
    <g transform="matrix(8.33333,0,0,8.33333,-33778,-12122.4)">
        <path d="M4194.37,1455.22L4192.24,1473.56L4190.15,1455.22L4182.33,1455.22L4182.33,1479.95L4186.81,1479.95L4186.81,1460.57L4189.08,1479.95L4195.44,1479.95L4197.71,1460.57L4197.71,1479.95L4202.16,1479.95L4202.16,1455.22L4194.37,1455.22Z" style="fill:rgb(89,89,92);fill-rule:nonzero;"/>
    </g>
    <g transform="matrix(8.33333,0,0,8.33333,-33778,-12122.4)">
        <path d="M4205.97,1455.22L4205.97,1479.95L4217.02,1479.95L4217.02,1475.83L4210.96,1475.83L4210.96,1469.26L4216.85,1469.26L4216.85,1465.14L4210.96,1465.14L4210.96,1459.34L4217.02,1459.34L4217.02,1455.22L4205.97,1455.22Z" style="fill:rgb(89,89,92);fill-rule:nonzero;"/>
    </g>
    <g transform="matrix(8.33333,0,0,8.33333,-33778,-12122.4)">
        <clipPath id="_clip2">
            <rect x="4053.36" y="1454.71" width="163.66" height="25.743"/>
        </clipPath>
        <g clip-path="url(#_clip2)">
            <path d="M4066.78,1463.68L4075.55,1455.78C4075.87,1455.49 4076.33,1455.25 4076.82,1455.08L4054.67,1455.08C4055.15,1455.25 4055.62,1455.49 4055.93,1455.78L4064.7,1463.68C4065.28,1464.2 4066.21,1464.2 4066.78,1463.68" style="fill:rgb(89,89,92);fill-rule:nonzero;"/>
            <path d="M4061.55,1466.52L4053.36,1459.14L4053.36,1475.77L4061.55,1468.39C4062.13,1467.88 4062.13,1467.04 4061.55,1466.52" style="fill:rgb(89,89,92);fill-rule:nonzero;"/>
            <path d="M4069.93,1466.52C4069.36,1467.04 4069.36,1467.88 4069.93,1468.39L4078.12,1475.77L4078.12,1459.14L4069.93,1466.52Z" style="fill:rgb(89,89,92);fill-rule:nonzero;"/>
            <path d="M4075.55,1479.14L4066.78,1471.23C4066.21,1470.72 4065.28,1470.72 4064.7,1471.23L4055.93,1479.14C4055.62,1479.42 4055.15,1479.66 4054.67,1479.84L4076.82,1479.84C4076.34,1479.66 4075.87,1479.42 4075.55,1479.14" style="fill:rgb(89,89,92);fill-rule:nonzero;"/>
        </g>
    </g>
</svg>
