<svg width="100%" height="100%" viewBox="0 0 2039 216" version="1.1" xmlns="http://www.w3.org/2000/svg" xmlns:xlink="http://www.w3.org/1999/xlink" xml:space="preserve" style="fill-rule:evenodd;clip-rule:evenodd;stroke-linejoin:round;stroke-miterlimit:1.41421;">
    <g transform="matrix(8.33333,0,0,8.33333,-33440.4,-11761.7)">
        <path d="M4048.8,1411.93L4048.8,1436.79L4053.82,1436.79L4053.82,1426.04L4058.68,1426.04L4058.68,1421.89L4053.82,1421.89L4053.82,1416.07L4058.86,1416.07L4058.86,1411.93L4048.8,1411.93Z" style="fill:rgb(89,89,92);fill-rule:nonzero;"/>
    </g>
    <g transform="matrix(8.33333,0,0,8.33333,-33440.4,-11761.7)">
        <clipPath id="_clip1">
            <rect x="4012.88" y="1411.42" width="244.632" height="25.883"/>
        </clipPath>
        <g clip-path="url(#_clip1)">
            <path d="M4075.98,1432.5C4075.98,1435.71 4073.28,1437.3 4068.98,1437.3C4064.72,1437.3 4061.99,1435.71 4061.99,1432.5L4061.99,1416.55C4061.99,1413.34 4064.69,1411.42 4068.95,1411.42C4073.25,1411.42 4075.98,1413.34 4075.98,1416.55L4075.98,1432.5ZM4067,1431.33C4067,1432.38 4067.75,1433.16 4068.98,1433.16C4070.24,1433.16 4070.96,1432.41 4070.96,1431.36L4070.96,1417.39C4070.96,1416.34 4070.21,1415.56 4068.95,1415.56C4067.72,1415.56 4067,1416.31 4067,1417.36L4067,1431.33Z" style="fill:rgb(89,89,92);fill-rule:nonzero;"/>
            <path d="M4088.68,1432.26L4088.68,1428.23C4088.68,1426.85 4088.29,1426.04 4087.02,1426.04L4084.71,1426.04L4084.71,1436.79L4079.7,1436.79L4079.7,1411.93L4089.46,1411.93C4093.6,1411.93 4093.69,1414.87 4093.69,1417.45L4093.69,1418.17C4093.69,1420.63 4093.6,1423.67 4089.49,1424.06C4093.6,1424.39 4093.69,1427.12 4093.69,1429.55L4093.69,1433.28C4093.69,1434.66 4093.72,1436.16 4093.96,1436.79L4089.01,1436.79C4088.68,1436.01 4088.68,1433.85 4088.68,1432.26M4084.71,1416.07L4084.71,1421.89L4087.02,1421.89C4088.29,1421.89 4088.68,1421.11 4088.68,1419.73L4088.68,1418.23C4088.68,1416.85 4088.29,1416.07 4087.02,1416.07L4084.71,1416.07Z" style="fill:rgb(89,89,92);fill-rule:nonzero;"/>
            <path d="M4109.24,1436.79L4108.91,1434.96C4108.1,1436.49 4106.21,1437.3 4104.32,1437.3C4100.05,1437.3 4097.32,1435.71 4097.32,1432.49L4097.32,1416.55C4097.32,1413.34 4100.02,1411.41 4104.29,1411.41C4108.58,1411.41 4111.31,1413.34 4111.31,1416.55L4111.31,1420.87L4106.3,1420.87L4106.3,1417.39C4106.3,1416.34 4105.55,1415.56 4104.29,1415.56C4103.06,1415.56 4102.33,1416.31 4102.33,1417.36L4102.33,1431.32C4102.33,1432.38 4103.09,1433.15 4104.32,1433.15C4105.58,1433.15 4106.3,1432.4 4106.3,1431.35L4106.3,1426.88L4104.29,1426.88L4104.29,1422.74L4111.31,1422.74L4111.31,1436.79L4109.24,1436.79Z" style="fill:rgb(89,89,92);fill-rule:nonzero;"/>
            <path d="M4115.04,1411.93L4115.04,1436.79L4126.15,1436.79L4126.15,1432.65L4120.05,1432.65L4120.05,1426.04L4125.97,1426.04L4125.97,1421.89L4120.05,1421.89L4120.05,1416.07L4126.15,1416.07L4126.15,1411.93L4115.04,1411.93Z" style="fill:rgb(89,89,92);fill-rule:nonzero;"/>
            <g>
                <clipPath id="_clip2">
                    <rect x="4012.88" y="1411.42" width="244.632" height="25.883"/>
                </clipPath>
                <g clip-path="url(#_clip2)">
                    <path d="M4129.57,1411.93L4139.33,1411.93C4143.47,1411.93 4143.56,1414.87 4143.56,1417.45L4143.56,1431.26C4143.56,1433.85 4143.47,1436.79 4139.33,1436.79L4129.57,1436.79L4129.57,1411.93ZM4134.58,1416.07L4134.58,1432.65L4136.9,1432.65C4138.15,1432.65 4138.55,1431.87 4138.55,1430.49L4138.55,1418.23C4138.55,1416.85 4138.15,1416.07 4136.9,1416.07L4134.58,1416.07Z" style="fill:rgb(89,89,92);fill-rule:nonzero;"/>
                    <path d="M4160.23,1431.32C4160.23,1432.37 4160.98,1433.16 4162.21,1433.16C4163.47,1433.16 4164.19,1432.4 4164.19,1431.36L4164.19,1426.01L4169.2,1426.01L4169.2,1432.49C4169.2,1435.71 4166.5,1437.3 4162.21,1437.3C4157.94,1437.3 4155.21,1435.71 4155.21,1432.49L4155.21,1416.55C4155.21,1413.34 4157.91,1411.42 4162.18,1411.42C4166.47,1411.42 4169.2,1413.34 4169.2,1416.55L4169.2,1421.9L4164.19,1421.9L4164.19,1417.39C4164.19,1416.34 4163.44,1415.56 4162.18,1415.56C4160.94,1415.56 4160.23,1416.31 4160.23,1417.36L4160.23,1431.32Z" style="fill:rgb(89,89,92);fill-rule:nonzero;"/>
                </g>
            </g>
            <path d="M4175.18,1411.93L4171.91,1436.79L4176.92,1436.79L4177.52,1431.75L4181.55,1431.75L4182.18,1436.79L4187.16,1436.79L4183.89,1411.93L4175.18,1411.93ZM4179.53,1415.35L4181.04,1427.6L4178.03,1427.6L4179.53,1415.35Z" style="fill:rgb(89,89,92);fill-rule:nonzero;"/>
            <path d="M4199.14,1432.26L4199.14,1428.23C4199.14,1426.85 4198.75,1426.04 4197.48,1426.04L4195.17,1426.04L4195.17,1436.79L4190.16,1436.79L4190.16,1411.93L4199.92,1411.93C4204.06,1411.93 4204.15,1414.87 4204.15,1417.45L4204.15,1418.17C4204.15,1420.63 4204.06,1423.67 4199.94,1424.06C4204.06,1424.39 4204.15,1427.12 4204.15,1429.55L4204.15,1433.28C4204.15,1434.66 4204.18,1436.16 4204.42,1436.79L4199.47,1436.79C4199.14,1436.01 4199.14,1433.85 4199.14,1432.26M4195.17,1416.07L4195.17,1421.89L4197.48,1421.89C4198.75,1421.89 4199.14,1421.11 4199.14,1419.73L4199.14,1418.23C4199.14,1416.85 4198.75,1416.07 4197.48,1416.07L4195.17,1416.07Z" style="fill:rgb(89,89,92);fill-rule:nonzero;"/>
            <path d="M4207.99,1411.93L4217.75,1411.93C4221.9,1411.93 4221.99,1414.87 4221.99,1417.45L4221.99,1418.17C4221.99,1420.63 4221.9,1423.67 4217.78,1424.06C4221.9,1424.39 4221.99,1427.12 4221.99,1429.55L4221.99,1431.26C4221.99,1433.85 4221.9,1436.79 4217.75,1436.79L4207.99,1436.79L4207.99,1411.93ZM4213.01,1416.07L4213.01,1421.89L4215.32,1421.89C4216.58,1421.89 4216.97,1421.12 4216.97,1419.73L4216.97,1418.23C4216.97,1416.85 4216.58,1416.07 4215.32,1416.07L4213.01,1416.07ZM4215.32,1432.65C4216.58,1432.65 4216.97,1431.87 4216.97,1430.49L4216.97,1428.23C4216.97,1426.85 4216.58,1426.04 4215.32,1426.04L4213.01,1426.04L4213.01,1432.65L4215.32,1432.65Z" style="fill:rgb(89,89,92);fill-rule:nonzero;"/>
            <path d="M4239.47,1432.5C4239.47,1435.71 4236.77,1437.3 4232.47,1437.3C4228.21,1437.3 4225.48,1435.71 4225.48,1432.5L4225.48,1416.55C4225.48,1413.34 4228.18,1411.42 4232.44,1411.42C4236.73,1411.42 4239.47,1413.34 4239.47,1416.55L4239.47,1432.5ZM4230.49,1431.33C4230.49,1432.38 4231.24,1433.16 4232.47,1433.16C4233.73,1433.16 4234.45,1432.41 4234.45,1431.36L4234.45,1417.39C4234.45,1416.34 4233.7,1415.56 4232.44,1415.56C4231.21,1415.56 4230.49,1416.31 4230.49,1417.36L4230.49,1431.33Z" style="fill:rgb(89,89,92);fill-rule:nonzero;"/>
            <path d="M4253.01,1411.93L4253.01,1430.39L4250.72,1411.93L4243.19,1411.93L4243.19,1436.79L4247.69,1436.79L4247.69,1417.3L4250.09,1436.79L4257.51,1436.79L4257.51,1411.93L4253.01,1411.93Z" style="fill:rgb(89,89,92);fill-rule:nonzero;"/>
            <path d="M4027,1430.02L4027,1429.27C4027,1429.07 4026.92,1428.91 4026.76,1428.8C4026.64,1428.72 4026.55,1428.69 4026.4,1428.69L4024.03,1428.69L4024.03,1431.75L4024.95,1431.75L4024.95,1430.66L4025.69,1430.66L4026.08,1431.75L4027.02,1431.75L4026.62,1430.62C4026.79,1430.56 4027,1430.4 4027,1430.02M4026.08,1430.03L4024.95,1430.03L4024.95,1429.5L4026.08,1429.5L4026.08,1430.03Z" style="fill:rgb(89,89,92);fill-rule:nonzero;"/>
            <path d="M4017.13,1428.69L4017.13,1431.76L4018.05,1431.76L4018.05,1430.55L4019.77,1430.55L4019.77,1429.9L4018.05,1429.9L4018.05,1429.5L4019.77,1429.5L4019.77,1428.69L4017.13,1428.69Z" style="fill:rgb(89,89,92);fill-rule:nonzero;"/>
            <path d="M4023.25,1431.47C4023.38,1431.32 4023.43,1431.19 4023.43,1431L4023.43,1429.48C4023.43,1429.23 4023.38,1429.06 4023.19,1428.88C4022.99,1428.7 4022.51,1428.69 4022.5,1428.69L4021.19,1428.69C4020.89,1428.69 4020.67,1428.79 4020.51,1429.03C4020.39,1429.2 4020.35,1429.42 4020.36,1429.55L4020.36,1430.89C4020.36,1430.96 4020.38,1431.4 4020.59,1431.57C4020.72,1431.69 4020.82,1431.75 4021,1431.75L4022.67,1431.75C4022.93,1431.75 4023.09,1431.66 4023.25,1431.47M4022.51,1430.94L4021.28,1430.94L4021.28,1429.5L4022.51,1429.5L4022.51,1430.94Z" style="fill:rgb(89,89,92);fill-rule:nonzero;"/>
            <path d="M4030.58,1429.5L4030.58,1428.69L4028.4,1428.69C4028.11,1428.69 4027.89,1428.79 4027.72,1429.03C4027.6,1429.2 4027.57,1429.42 4027.57,1429.55L4027.57,1430.89C4027.57,1430.96 4027.59,1431.4 4027.8,1431.58C4027.93,1431.69 4028.03,1431.75 4028.21,1431.75L4029.78,1431.75C4030.06,1431.75 4030.28,1431.74 4030.46,1431.52C4030.59,1431.37 4030.63,1431.22 4030.62,1431.03L4030.62,1429.93L4029.68,1429.93L4029.68,1430.94L4028.5,1430.94L4028.5,1429.5L4030.58,1429.5Z" style="fill:rgb(89,89,92);fill-rule:nonzero;"/>
            <path d="M4031.21,1428.69L4031.21,1431.75L4033.85,1431.75L4033.85,1430.94L4032.14,1430.94L4032.14,1430.55L4033.85,1430.55L4033.85,1429.9L4032.14,1429.9L4032.14,1429.5L4033.85,1429.5L4033.85,1428.69L4031.21,1428.69Z" style="fill:rgb(89,89,92);fill-rule:nonzero;"/>
            <path d="M4037.26,1431.47C4037.38,1431.32 4037.44,1431.19 4037.44,1431L4037.44,1429.48C4037.44,1429.23 4037.38,1429.06 4037.2,1428.88C4037,1428.69 4036.51,1428.69 4036.5,1428.69L4034.42,1428.69L4034.42,1431.75L4036.68,1431.75C4036.93,1431.75 4037.1,1431.66 4037.26,1431.47M4036.51,1430.94L4035.35,1430.94L4035.35,1429.5L4036.51,1429.5L4036.51,1430.94Z" style="fill:rgb(89,89,92);fill-rule:nonzero;"/>
            <path d="M4025.26,1421.14L4025.26,1421.87L4026.56,1421.87L4027.08,1422.39L4027.6,1421.87L4028.9,1421.87L4028.9,1421.14L4025.26,1421.14Z" style="fill:rgb(89,89,92);fill-rule:nonzero;"/>
            <g>
                <clipPath id="_clip3">
                    <rect x="4012.88" y="1411.42" width="244.632" height="25.883"/>
                </clipPath>
                <g clip-path="url(#_clip3)">
                    <path d="M4025.26,1423.23L4025.57,1423.54L4025.57,1424.14C4025.57,1424.5 4025.86,1424.79 4026.21,1424.79L4027.95,1424.79C4028.3,1424.79 4028.59,1424.5 4028.59,1424.14L4028.59,1423.54L4028.9,1423.23L4028.9,1422.58L4027.69,1422.58L4027.69,1423.86C4027.69,1423.97 4027.59,1424.06 4027.48,1424.06L4026.68,1424.06C4026.57,1424.06 4026.47,1423.97 4026.47,1423.86L4026.47,1422.58L4025.26,1422.58L4025.26,1423.23Z" style="fill:rgb(89,89,92);fill-rule:nonzero;"/>
                    <path d="M4041.18,1432L4029.81,1412.3C4029.7,1412.11 4029.49,1411.99 4029.27,1411.99L4024.87,1411.99C4024.65,1411.99 4024.44,1412.11 4024.33,1412.3L4012.96,1432C4012.85,1432.19 4012.85,1432.43 4012.96,1432.62L4015.16,1436.43C4015.27,1436.62 4015.48,1436.75 4015.7,1436.75L4038.44,1436.75C4038.66,1436.75 4038.87,1436.63 4038.98,1436.43L4041.18,1432.62C4041.29,1432.43 4041.29,1432.19 4041.18,1432M4038.09,1435.5L4016.06,1435.5L4014.22,1432.31L4025.23,1413.23L4028.91,1413.23L4039.93,1432.31L4038.09,1435.5Z" style="fill:rgb(89,89,92);fill-rule:nonzero;"/>
                    <path d="M4030.44,1424.94L4027.82,1426.45C4027.56,1426.6 4027.47,1426.93 4027.62,1427.19C4027.72,1427.37 4027.91,1427.47 4028.09,1427.47C4028.18,1427.47 4028.28,1427.44 4028.36,1427.39L4030.98,1425.88L4033.6,1427.39C4033.68,1427.44 4033.78,1427.47 4033.87,1427.47C4034.06,1427.47 4034.24,1427.37 4034.35,1427.19C4034.5,1426.93 4034.41,1426.6 4034.15,1426.45L4031.53,1424.94L4031.53,1421.88C4031.53,1421.58 4031.28,1421.34 4030.98,1421.34C4030.68,1421.34 4030.44,1421.58 4030.44,1421.88L4030.44,1424.94Z" style="fill:rgb(89,89,92);fill-rule:nonzero;"/>
                    <path d="M4023.16,1425.88L4025.78,1427.4C4025.87,1427.44 4025.96,1427.47 4026.05,1427.47C4026.24,1427.47 4026.43,1427.37 4026.53,1427.19C4026.68,1426.93 4026.59,1426.6 4026.33,1426.45L4023.71,1424.94L4023.71,1421.88C4023.71,1421.58 4023.47,1421.34 4023.16,1421.34C4022.86,1421.34 4022.62,1421.58 4022.62,1421.88L4022.62,1424.94L4020,1426.45C4019.74,1426.6 4019.65,1426.93 4019.8,1427.19C4019.9,1427.37 4020.08,1427.47 4020.27,1427.47C4020.37,1427.47 4020.46,1427.44 4020.55,1427.39L4023.16,1425.88Z" style="fill:rgb(89,89,92);fill-rule:nonzero;"/>
                    <path d="M4027.62,1415.07C4027.62,1414.77 4027.37,1414.53 4027.07,1414.53C4026.77,1414.53 4026.53,1414.77 4026.53,1415.07L4026.53,1418.12L4023.91,1419.63C4023.65,1419.79 4023.56,1420.12 4023.71,1420.38C4023.81,1420.56 4023.99,1420.65 4024.18,1420.65C4024.28,1420.65 4024.37,1420.63 4024.45,1420.58L4027.07,1419.07L4029.69,1420.58C4029.77,1420.63 4029.87,1420.65 4029.96,1420.65C4030.15,1420.65 4030.33,1420.56 4030.43,1420.38C4030.59,1420.12 4030.5,1419.79 4030.24,1419.63L4027.62,1418.12L4027.62,1415.07Z" style="fill:rgb(89,89,92);fill-rule:nonzero;"/>
                    <path d="M4026.82,1433.39L4026.82,1432.96C4026.82,1432.84 4026.77,1432.75 4026.68,1432.68C4026.61,1432.64 4026.56,1432.62 4026.47,1432.62L4025.1,1432.62L4025.1,1434.4L4025.63,1434.4L4025.63,1433.77L4026.06,1433.77L4026.29,1434.4L4026.83,1434.4L4026.6,1433.74C4026.7,1433.7 4026.82,1433.61 4026.82,1433.39M4026.28,1433.4L4025.63,1433.4L4025.63,1433.09L4026.28,1433.09L4026.28,1433.4Z" style="fill:rgb(89,89,92);fill-rule:nonzero;"/>
                    <path d="M4021.54,1432.62C4021.5,1432.63 4021.46,1432.63 4021.42,1432.64C4021.39,1432.65 4021.36,1432.66 4021.34,1432.67C4021.31,1432.69 4021.29,1432.7 4021.26,1432.72C4021.22,1432.76 4021.19,1432.81 4021.16,1432.87C4021.15,1432.93 4021.14,1433.01 4021.14,1433.1L4021.14,1433.92C4021.14,1434.01 4021.15,1434.09 4021.16,1434.15C4021.19,1434.2 4021.22,1434.26 4021.26,1434.29C4021.29,1434.31 4021.31,1434.33 4021.34,1434.34C4021.36,1434.36 4021.39,1434.37 4021.42,1434.38C4021.46,1434.38 4021.5,1434.39 4021.54,1434.39C4021.58,1434.39 4021.63,1434.4 4021.69,1434.4L4022.74,1434.4L4022.74,1433.92L4021.69,1433.92L4021.69,1433.1L4022.74,1433.1L4022.74,1432.62L4021.69,1432.62C4021.63,1432.62 4021.58,1432.62 4021.54,1432.62" style="fill:rgb(89,89,92);fill-rule:nonzero;"/>
                    <path d="M4024.75,1432.9C4024.74,1432.88 4024.74,1432.85 4024.72,1432.83C4024.71,1432.8 4024.7,1432.78 4024.68,1432.76C4024.64,1432.71 4024.58,1432.67 4024.52,1432.65C4024.45,1432.63 4024.37,1432.62 4024.26,1432.62L4023.61,1432.62C4023.51,1432.62 4023.42,1432.63 4023.35,1432.65C4023.29,1432.67 4023.23,1432.71 4023.19,1432.76C4023.17,1432.78 4023.16,1432.8 4023.14,1432.83C4023.13,1432.85 4023.12,1432.88 4023.12,1432.9C4023.11,1432.93 4023.11,1432.97 4023.1,1433.01C4023.1,1433.05 4023.1,1433.1 4023.1,1433.16L4023.1,1434.4L4023.65,1434.4L4023.65,1433.7L4024.22,1433.7L4024.22,1434.4L4024.77,1434.4L4024.77,1433.16C4024.77,1433.1 4024.77,1433.05 4024.77,1433.01C4024.76,1432.97 4024.76,1432.93 4024.75,1432.9M4024.22,1433.3L4023.65,1433.3L4023.65,1433.1L4024.22,1433.1L4024.22,1433.3Z" style="fill:rgb(89,89,92);fill-rule:nonzero;"/>
                    <path d="M4028.57,1432.64C4028.52,1432.62 4028.45,1432.62 4028.36,1432.62L4027.15,1432.62L4027.15,1434.4L4028.39,1434.4C4028.47,1434.4 4028.53,1434.39 4028.59,1434.37C4028.64,1434.36 4028.69,1434.33 4028.73,1434.29C4028.77,1434.25 4028.8,1434.21 4028.82,1434.17C4028.83,1434.13 4028.84,1434.06 4028.84,1433.99L4028.84,1433.77C4028.84,1433.73 4028.84,1433.7 4028.83,1433.67C4028.83,1433.64 4028.81,1433.62 4028.8,1433.59C4028.79,1433.57 4028.77,1433.55 4028.75,1433.53C4028.72,1433.51 4028.7,1433.49 4028.66,1433.48C4028.73,1433.44 4028.77,1433.4 4028.8,1433.36C4028.83,1433.31 4028.84,1433.26 4028.84,1433.18L4028.84,1433C4028.84,1432.86 4028.79,1432.76 4028.7,1432.7C4028.66,1432.67 4028.62,1432.65 4028.57,1432.64M4028.29,1433.92L4027.7,1433.92L4027.7,1433.7L4028.29,1433.7L4028.29,1433.92ZM4028.29,1433.31L4027.7,1433.31L4027.7,1433.1L4028.29,1433.1L4028.29,1433.31Z" style="fill:rgb(89,89,92);fill-rule:nonzero;"/>
                    <path d="M4030.77,1432.72C4030.72,1432.68 4030.67,1432.66 4030.61,1432.64C4030.55,1432.63 4030.46,1432.62 4030.35,1432.62L4029.75,1432.62C4029.69,1432.62 4029.64,1432.62 4029.6,1432.62C4029.55,1432.63 4029.52,1432.63 4029.48,1432.64C4029.45,1432.65 4029.42,1432.66 4029.4,1432.67C4029.37,1432.69 4029.35,1432.7 4029.32,1432.72C4029.28,1432.76 4029.24,1432.81 4029.22,1432.87C4029.2,1432.93 4029.2,1433.01 4029.2,1433.1L4029.2,1433.92C4029.2,1434.01 4029.2,1434.09 4029.22,1434.14C4029.24,1434.2 4029.28,1434.26 4029.32,1434.29C4029.35,1434.31 4029.37,1434.33 4029.4,1434.34C4029.42,1434.36 4029.45,1434.37 4029.48,1434.38C4029.52,1434.38 4029.55,1434.39 4029.6,1434.39C4029.64,1434.39 4029.69,1434.4 4029.75,1434.4L4030.35,1434.4C4030.46,1434.4 4030.55,1434.39 4030.61,1434.38C4030.67,1434.36 4030.72,1434.33 4030.77,1434.29C4030.81,1434.26 4030.85,1434.2 4030.87,1434.14C4030.89,1434.09 4030.9,1434.01 4030.9,1433.92L4030.9,1433.1C4030.9,1433.01 4030.89,1432.93 4030.87,1432.87C4030.85,1432.81 4030.81,1432.76 4030.77,1432.72M4030.35,1433.92L4029.75,1433.92L4029.75,1433.1L4030.35,1433.1L4030.35,1433.92Z" style="fill:rgb(89,89,92);fill-rule:nonzero;"/>
                </g>
            </g>
        </g>
    </g>
    <g transform="matrix(8.33333,0,0,8.33333,-33440.4,-11761.7)">
        <path d="M4032.46,1432.62L4032.46,1433.47L4031.94,1432.62L4031.26,1432.62L4031.26,1434.39L4031.81,1434.39L4031.81,1433.31L4032.48,1434.39L4033.01,1434.39L4033.01,1432.62L4032.46,1432.62Z" style="fill:rgb(89,89,92);fill-rule:nonzero;"/>
    </g>
</svg>
