<svg width="100%" height="100%" viewBox="0 0 1832 215" version="1.1" xmlns="http://www.w3.org/2000/svg" xmlns:xlink="http://www.w3.org/1999/xlink" xml:space="preserve" style="fill-rule:evenodd;clip-rule:evenodd;stroke-linejoin:round;stroke-miterlimit:1.41421;">
    <g transform="matrix(8.33333,0,0,8.33333,-31015.5,-12122.3)">
        <path d="M3768.06,1455.19L3765.93,1473.55L3763.84,1455.19L3756,1455.19L3756,1479.95L3760.49,1479.95L3760.49,1460.54L3762.76,1479.95L3769.13,1479.95L3771.4,1460.54L3771.4,1479.95L3775.86,1479.95L3775.86,1455.19L3768.06,1455.19Z" style="fill:rgb(89,89,92);fill-rule:nonzero;"/>
    </g>
    <g transform="matrix(8.33333,0,0,8.33333,-31015.5,-12122.3)">
        <path d="M3782.09,1455.19L3778.83,1479.95L3783.82,1479.95L3784.42,1474.93L3788.43,1474.93L3789.06,1479.95L3794.02,1479.95L3790.76,1455.19L3782.09,1455.19ZM3786.43,1458.6L3787.92,1470.8L3784.93,1470.8L3786.43,1458.6Z" style="fill:rgb(89,89,92);fill-rule:nonzero;"/>
    </g>
    <g transform="matrix(8.33333,0,0,8.33333,-31015.5,-12122.3)">
        <clipPath id="_clip1">
            <rect x="3721.89" y="1454.68" width="219.787" height="25.778"/>
        </clipPath>
        <g clip-path="url(#_clip1)">
            <path d="M3808.54,1479.95L3808.21,1478.13C3807.41,1479.65 3805.52,1480.46 3803.64,1480.46C3799.39,1480.46 3796.67,1478.88 3796.67,1475.68L3796.67,1459.8C3796.67,1456.59 3799.36,1454.68 3803.61,1454.68C3807.88,1454.68 3810.61,1456.59 3810.61,1459.8L3810.61,1464.1L3805.61,1464.1L3805.61,1460.63C3805.61,1459.59 3804.86,1458.81 3803.61,1458.81C3802.38,1458.81 3801.66,1459.56 3801.66,1460.6L3801.66,1474.51C3801.66,1475.56 3802.41,1476.33 3803.64,1476.33C3804.89,1476.33 3805.61,1475.59 3805.61,1474.54L3805.61,1470.08L3803.61,1470.08L3803.61,1465.95L3810.61,1465.95L3810.61,1479.95L3808.54,1479.95Z" style="fill:rgb(89,89,92);fill-rule:nonzero;"/>
            <path d="M3824.04,1455.19L3824.04,1473.58L3821.77,1455.19L3814.26,1455.19L3814.26,1479.95L3818.75,1479.95L3818.75,1460.54L3821.14,1479.95L3828.53,1479.95L3828.53,1455.19L3824.04,1455.19Z" style="fill:rgb(89,89,92);fill-rule:nonzero;"/>
            <path d="M3832.25,1455.19L3832.25,1479.95L3843.32,1479.95L3843.32,1475.82L3837.25,1475.82L3837.25,1469.24L3843.14,1469.24L3843.14,1465.12L3837.25,1465.12L3837.25,1459.32L3843.32,1459.32L3843.32,1455.19L3832.25,1455.19Z" style="fill:rgb(89,89,92);fill-rule:nonzero;"/>
            <clipPath id="_clip2">
                <rect x="3721.89" y="1454.68" width="219.787" height="25.778"/>
            </clipPath>
            <g clip-path="url(#_clip2)">
                <path d="M3860.4,1475.67C3860.4,1478.88 3857.68,1480.46 3853.41,1480.46C3849.16,1480.46 3846.47,1478.88 3846.47,1475.67L3846.47,1470.95L3851.46,1470.95L3851.46,1474.54C3851.46,1475.59 3852.18,1476.33 3853.41,1476.33C3854.66,1476.33 3855.41,1475.56 3855.41,1474.51L3855.41,1472.48C3855.41,1468.44 3846.47,1469.42 3846.47,1463.03L3846.47,1459.79C3846.47,1456.6 3849.16,1454.68 3853.41,1454.68C3857.68,1454.68 3860.4,1456.6 3860.4,1459.79L3860.4,1463.41L3855.41,1463.41L3855.41,1460.63C3855.41,1459.59 3854.66,1458.81 3853.41,1458.81C3852.18,1458.81 3851.46,1459.56 3851.46,1460.6L3851.46,1462.07C3851.46,1466.46 3860.4,1464.22 3860.4,1471.76L3860.4,1475.67Z" style="fill:rgb(89,89,92);fill-rule:nonzero;"/>
            </g>
            <rect x="3863.9" y="1455.19" width="4.995" height="24.76" style="fill:rgb(89,89,92);fill-rule:nonzero;"/>
            <clipPath id="_clip3">
                <rect x="3721.89" y="1454.68" width="219.787" height="25.778"/>
            </clipPath>
            <g clip-path="url(#_clip3)">
                <path d="M3872.5,1475.67L3872.5,1455.19L3877.5,1455.19L3877.5,1474.51C3877.5,1475.56 3878.24,1476.33 3879.47,1476.33C3880.72,1476.33 3881.44,1475.59 3881.44,1474.54L3881.44,1455.19L3886.44,1455.19L3886.44,1475.67C3886.44,1478.88 3883.75,1480.46 3879.47,1480.46C3875.22,1480.46 3872.5,1478.88 3872.5,1475.67" style="fill:rgb(89,89,92);fill-rule:nonzero;"/>
            </g>
            <path d="M3902.14,1455.19L3900.01,1473.55L3897.92,1455.19L3890.09,1455.19L3890.09,1479.95L3894.57,1479.95L3894.57,1460.54L3896.84,1479.95L3903.21,1479.95L3905.49,1460.54L3905.49,1479.95L3909.94,1479.95L3909.94,1455.19L3902.14,1455.19Z" style="fill:rgb(89,89,92);fill-rule:nonzero;"/>
            <g>
                <clipPath id="_clip4">
                    <rect x="3721.89" y="1454.68" width="219.787" height="25.778"/>
                </clipPath>
                <g clip-path="url(#_clip4)">
                    <path d="M3738.09,1465.9L3738.09,1470.85C3738.09,1471.44 3738.39,1471.69 3738.93,1471.69C3739.41,1471.69 3739.86,1471.5 3740.26,1471.19L3740.26,1465.6C3739.86,1465.25 3739.41,1465.06 3738.93,1465.06C3738.39,1465.06 3738.09,1465.31 3738.09,1465.9" style="fill:rgb(89,89,92);fill-rule:nonzero;"/>
                    <path d="M3721.89,1479.95L3746.65,1479.95L3746.65,1455.18L3721.89,1455.18L3721.89,1479.95ZM3734.99,1474.11L3733.51,1474.11L3733.51,1463.06L3731.67,1474.11L3730.11,1474.11L3728.28,1463.06L3728.28,1474.11L3726.83,1474.11L3726.83,1460.75L3729.23,1460.75L3730.93,1471.27L3732.63,1460.75L3734.99,1460.75L3734.99,1474.11ZM3741.72,1474.05C3741.72,1475.58 3740.99,1476.29 3739.46,1476.29L3738.7,1476.29C3737.33,1476.29 3736.68,1475.66 3736.68,1474.28L3736.68,1473.73L3738.03,1473.73L3738.03,1474.22C3738.03,1474.74 3738.26,1475.03 3738.78,1475.03L3739.52,1475.03C3740.03,1475.03 3740.26,1474.74 3740.26,1474.22L3740.26,1472.35C3739.81,1472.77 3739.25,1473.06 3738.49,1473.06C3737.25,1473.06 3736.64,1472.24 3736.64,1471.02L3736.64,1465.73C3736.64,1464.51 3737.25,1463.69 3738.49,1463.69C3739.33,1463.69 3739.92,1464.09 3740.26,1464.43L3740.26,1463.8L3741.72,1463.8L3741.72,1474.05ZM3745.24,1459.13L3742.44,1456.33L3745.24,1456.33L3745.24,1459.13Z" style="fill:rgb(89,89,92);fill-rule:nonzero;"/>
                    <path d="M3920.98,1455.3C3923.69,1455.3 3924.96,1456.58 3924.96,1459.32L3924.96,1462.78C3924.96,1464.29 3924.67,1465.46 3923.17,1467.31L3919.14,1472.38C3918.33,1473.41 3917.97,1474.11 3917.97,1475.51L3917.97,1477.02L3924.96,1477.02L3924.96,1479.24L3915.43,1479.24L3915.43,1475.37C3915.43,1473.65 3915.87,1472.54 3917.25,1470.8L3921.28,1465.74C3922.13,1464.68 3922.42,1463.98 3922.42,1462.96L3922.42,1459.5C3922.42,1458.17 3921.69,1457.41 3920.41,1457.41L3919.95,1457.41C3918.62,1457.41 3917.89,1458.15 3917.89,1459.5L3917.89,1463.3L3915.5,1463.3L3915.5,1459.32C3915.5,1456.58 3916.76,1455.3 3919.48,1455.3L3920.98,1455.3ZM3920.98,1454.68L3919.48,1454.68C3916.41,1454.68 3914.88,1456.21 3914.88,1459.32L3914.88,1463.92L3918.52,1463.92L3918.52,1459.5C3918.52,1458.5 3918.98,1458.03 3919.95,1458.03L3920.41,1458.03C3921.33,1458.03 3921.8,1458.5 3921.8,1459.5L3921.8,1462.96C3921.8,1463.85 3921.55,1464.42 3920.8,1465.35L3916.77,1470.41C3915.27,1472.3 3914.81,1473.55 3914.81,1475.37L3914.81,1479.86L3925.58,1479.86L3925.58,1476.4L3918.59,1476.4L3918.59,1475.51C3918.59,1474.34 3918.84,1473.76 3919.62,1472.77L3923.65,1467.7C3925.19,1465.81 3925.58,1464.52 3925.58,1462.78L3925.58,1459.32C3925.58,1456.21 3924.05,1454.68 3920.98,1454.68" style="fill:rgb(89,89,92);fill-rule:nonzero;"/>
                </g>
            </g>
            <path d="M3926.22,1479.86L3929.82,1479.86L3929.82,1476.37L3926.22,1476.37L3926.22,1479.86ZM3926.83,1476.99L3929.2,1476.99L3929.2,1479.24L3926.83,1479.24L3926.83,1476.99Z" style="fill:rgb(89,89,92);fill-rule:nonzero;"/>
            <clipPath id="_clip5">
                <rect x="3721.89" y="1454.68" width="219.787" height="25.778"/>
            </clipPath>
            <g clip-path="url(#_clip5)">
                <path d="M3937.04,1455.3C3939.82,1455.3 3941.06,1456.54 3941.06,1459.32L3941.06,1475.44C3941.06,1478.22 3939.82,1479.46 3937.04,1479.46L3935.15,1479.46C3932.37,1479.46 3931.13,1478.22 3931.13,1475.44L3931.13,1459.32C3931.13,1456.54 3932.37,1455.3 3935.15,1455.3L3937.04,1455.3ZM3935.76,1477.35L3936.47,1477.35C3937.79,1477.35 3938.52,1476.61 3938.52,1475.26L3938.52,1459.5C3938.52,1458.15 3937.79,1457.41 3936.47,1457.41L3935.76,1457.41C3934.41,1457.41 3933.67,1458.15 3933.67,1459.5L3933.67,1475.26C3933.67,1476.61 3934.41,1477.35 3935.76,1477.35M3937.04,1454.68L3935.15,1454.68C3932.05,1454.68 3930.51,1456.21 3930.51,1459.32L3930.51,1475.44C3930.51,1478.54 3932.05,1480.08 3935.15,1480.08L3937.04,1480.08C3940.14,1480.08 3941.68,1478.54 3941.68,1475.44L3941.68,1459.32C3941.68,1456.21 3940.14,1454.68 3937.04,1454.68M3935.76,1476.72C3934.76,1476.72 3934.29,1476.26 3934.29,1475.26L3934.29,1459.5C3934.29,1458.5 3934.76,1458.03 3935.76,1458.03L3936.47,1458.03C3937.43,1458.03 3937.9,1458.5 3937.9,1459.5L3937.9,1475.26C3937.9,1476.26 3937.43,1476.72 3936.47,1476.72L3935.76,1476.72Z" style="fill:rgb(89,89,92);fill-rule:nonzero;"/>
            </g>
        </g>
    </g>
</svg>
