<svg width="100%" height="100%" viewBox="0 0 45 25" version="1.1" xmlns="http://www.w3.org/2000/svg" xmlns:xlink="http://www.w3.org/1999/xlink" xml:space="preserve" style="fill-rule:evenodd;clip-rule:evenodd;stroke-linejoin:round;stroke-miterlimit:1.41421;">
    <g transform="matrix(1,0,0,1,-566.5,-20.7925)">
        <path d="M608.5,25.051L569.5,25.051C568.395,25.051 567.5,24.156 567.5,23.051L567.5,22.793C567.5,21.689 568.395,20.793 569.5,20.793L608.5,20.793C609.605,20.793 610.5,21.689 610.5,22.793L610.5,23.051C610.5,24.156 609.605,25.051 608.5,25.051" style="fill:white;fill-rule:nonzero;"/>
        <path d="M608.5,35.249L569.5,35.249C568.395,35.249 567.5,34.354 567.5,33.249L567.5,32.991C567.5,31.887 568.395,30.991 569.5,30.991L608.5,30.991C609.605,30.991 610.5,31.887 610.5,32.991L610.5,33.249C610.5,34.354 609.605,35.249 608.5,35.249" style="fill:white;fill-rule:nonzero;"/>
        <path d="M608.5,45.447L569.5,45.447C568.395,45.447 567.5,44.552 567.5,43.447L567.5,43.189C567.5,42.085 568.395,41.189 569.5,41.189L608.5,41.189C609.605,41.189 610.5,42.085 610.5,43.189L610.5,43.447C610.5,44.552 609.605,45.447 608.5,45.447" style="fill:white;fill-rule:nonzero;"/>
    </g>
</svg>
