<?xml version="1.0" standalone="no"?>
<!DOCTYPE svg PUBLIC "-//W3C//DTD SVG 1.1//EN" "http://www.w3.org/Graphics/SVG/1.1/DTD/svg11.dtd">
<svg width="100%" height="100%" viewBox="0 0 90 12" version="1.1" xmlns="http://www.w3.org/2000/svg" xmlns:xlink="http://www.w3.org/1999/xlink" xml:space="preserve" style="fill-rule:evenodd;clip-rule:evenodd;stroke-miterlimit:10;">
    <g transform="matrix(1,0,0,1,0,0.0995)">
        <g transform="matrix(1,0,0,1,-270.862,-889.995)">
            <path d="M292.241,900.394C290.842,900.394 289.767,899.931 288.717,898.995L289.142,898.507C290.104,899.394 290.991,899.807 292.279,899.807C293.591,899.807 294.491,899.07 294.491,898.07L294.491,898.044C294.491,897.12 294.003,896.582 292.016,896.182C289.917,895.757 289.067,895.045 289.067,893.72L289.067,893.696C289.067,892.396 290.254,891.396 291.879,891.396C293.154,891.396 293.991,891.747 294.878,892.458L294.466,892.971C293.641,892.258 292.816,891.984 291.854,891.984C290.567,891.984 289.717,892.721 289.717,893.633L289.717,893.658C289.717,894.582 290.192,895.145 292.266,895.57C294.291,895.983 295.14,896.707 295.14,897.982L295.14,898.007C295.14,899.419 293.928,900.394 292.241,900.394" style="fill:white;fill-rule:nonzero;"/>
        </g>
        <g transform="matrix(1,0,0,1,-270.862,-889.995)">
            <path d="M299.992,892.12L299.992,900.268L299.342,900.268L299.342,892.12L296.293,892.12L296.293,891.52L303.041,891.52L303.041,892.12L299.992,892.12Z" style="fill:white;fill-rule:nonzero;"/>
        </g>
        <g transform="matrix(1,0,0,1,-270.862,-889.995)">
            <path d="M310.766,894.032C310.766,892.857 309.841,892.12 308.254,892.12L305.267,892.12L305.267,896.056L308.217,896.056C309.679,896.056 310.766,895.319 310.766,894.057L310.766,894.032ZM310.916,900.268L308.129,896.644L305.267,896.644L305.267,900.268L304.618,900.268L304.618,891.52L308.291,891.52C310.179,891.52 311.416,892.546 311.416,894.008L311.416,894.032C311.416,895.495 310.329,896.332 308.854,896.532L311.741,900.268L310.916,900.268Z" style="fill:white;fill-rule:nonzero;"/>
        </g>
        <g transform="matrix(1,0,0,1,-270.862,-889.995)">
            <path d="M320.978,895.895C320.978,893.733 319.403,891.958 317.242,891.958C315.08,891.958 313.53,893.708 313.53,895.871L313.53,895.895C313.53,898.057 315.104,899.832 317.267,899.832C319.429,899.832 320.978,898.083 320.978,895.92L320.978,895.895ZM317.242,900.419C314.592,900.419 312.855,898.307 312.855,895.92L312.855,895.895C312.855,893.508 314.617,891.372 317.267,891.372C319.916,891.372 321.653,893.483 321.653,895.871C321.665,895.882 321.665,895.882 321.653,895.895C321.653,898.282 319.891,900.419 317.242,900.419" style="fill:white;fill-rule:nonzero;"/>
        </g>
        <g transform="matrix(1,0,0,1,-270.862,-889.995)">
            <path d="M330.403,900.269L324.242,892.496L324.242,900.269L323.617,900.269L323.617,891.521L324.23,891.521L330.266,899.131L330.266,891.521L330.89,891.521L330.89,900.269L330.403,900.269Z" style="fill:white;fill-rule:nonzero;"/>
        </g>
        <g transform="matrix(1,0,0,1,-270.862,-889.995)">
            <path d="M337.266,900.419C334.504,900.419 332.867,898.382 332.867,895.92L332.867,895.895C332.867,893.532 334.579,891.371 337.191,891.371C338.616,891.371 339.516,891.796 340.391,892.521L339.966,893.008C339.278,892.408 338.478,891.958 337.154,891.958C335.029,891.958 333.542,893.758 333.542,895.87L333.542,895.895C333.542,898.156 334.954,899.844 337.291,899.844C338.403,899.844 339.441,899.381 340.078,898.844L340.078,896.332L337.154,896.332L337.154,895.732L340.703,895.732L340.703,899.107C339.915,899.807 338.691,900.419 337.266,900.419" style="fill:white;fill-rule:nonzero;"/>
        </g>
        <g transform="matrix(1,0,0,1,-270.862,-889.995)">
            <path d="M342.88,900.269L342.88,891.521L349.103,891.521L349.103,892.121L343.53,892.121L343.53,895.558L348.541,895.558L348.541,896.158L343.53,896.158L343.53,899.669L349.166,899.669L349.166,900.269L342.88,900.269Z" style="fill:white;fill-rule:nonzero;"/>
        </g>
        <g transform="matrix(1,0,0,1,-270.862,-889.995)">
            <path d="M356.941,894.032C356.941,892.857 356.016,892.12 354.429,892.12L351.442,892.12L351.442,896.056L354.392,896.056C355.854,896.056 356.941,895.319 356.941,894.057L356.941,894.032ZM357.091,900.268L354.304,896.644L351.442,896.644L351.442,900.268L350.793,900.268L350.793,891.52L354.466,891.52C356.354,891.52 357.591,892.546 357.591,894.008L357.591,894.032C357.591,895.495 356.504,896.332 355.029,896.532L357.916,900.268L357.091,900.268Z" style="fill:white;fill-rule:nonzero;"/>
        </g>
        <g transform="matrix(1,0,0,1,-270.862,-889.995)">
            <rect x="359.517" y="899.206" width="0.825" height="1.062" style="fill:white;fill-rule:nonzero;"/>
        </g>
        <g transform="matrix(1,0,0,1,-270.862,-889.995)">
            <path d="M277.099,898.108C277.099,898.373 276.884,898.588 276.618,898.588L274.723,898.588C274.457,898.588 274.242,898.373 274.242,898.108L274.242,895.098L271.381,895.098L271.381,896.632L272.121,897.369L272.121,898.776C272.121,899.607 272.796,900.281 273.63,900.281L277.711,900.281C278.545,900.281 279.22,899.607 279.22,898.776L279.22,897.369L279.96,896.632L279.96,895.098L277.099,895.098L277.099,898.108ZM271.381,891.725L271.381,893.429L274.443,893.429L275.671,894.654L276.898,893.429L279.96,893.43L279.96,891.725L271.381,891.725Z" style="fill:white;fill-rule:nonzero;"/>
        </g>
        <g transform="matrix(1,0,0,1,-270.862,-889.995)">
            <path d="M284.599,890.749L284.599,901.24" style="fill:none;stroke-width:0.43px;stroke:white;"/>
        </g>
    </g>
</svg>
