<?xml version="1.0" encoding="UTF-8" standalone="no"?>
<!DOCTYPE svg PUBLIC "-//W3C//DTD SVG 1.1//EN" "http://www.w3.org/Graphics/SVG/1.1/DTD/svg11.dtd">
<svg width="100%" height="100%" viewBox="0 0 1180 145" version="1.1" xmlns="http://www.w3.org/2000/svg" xmlns:xlink="http://www.w3.org/1999/xlink" xml:space="preserve" style="fill-rule:evenodd;clip-rule:evenodd;stroke-linejoin:round;stroke-miterlimit:1.41421;">
    <g transform="matrix(0.999065,0,0,0.999065,-405.821,0.0677548)">
        <g transform="matrix(1,0,0,1,0,-439.201)">
            <path d="M406.2,561.551L424.491,539.641C437.155,550.093 450.421,556.727 466.501,556.727C479.164,556.727 486.803,551.701 486.803,543.46L486.803,543.058C486.803,535.219 481.978,531.199 458.461,525.169C430.119,517.933 411.828,510.093 411.828,482.154L411.828,481.752C411.828,456.224 432.33,439.34 461.074,439.34C481.576,439.34 499.064,445.772 513.335,457.229L497.255,480.546C484.792,471.903 472.531,466.676 460.672,466.676C448.813,466.676 442.581,472.104 442.581,478.938L442.581,479.34C442.581,488.586 448.612,491.601 472.933,497.832C501.476,505.269 517.556,515.521 517.556,540.043L517.556,540.445C517.556,568.385 496.25,584.063 465.898,584.063C444.592,584.063 423.084,576.626 406.2,561.551" style="fill:rgb(29,29,27);fill-rule:nonzero;"/>
        </g>
        <g transform="matrix(1,0,0,1,0,-439.201)">
            <path d="M573.236,469.893L530.422,469.893L530.422,441.351L647.005,441.351L647.005,469.893L604.191,469.893L604.191,582.053L573.236,582.053L573.236,469.893Z" style="fill:rgb(29,29,27);fill-rule:nonzero;"/>
        </g>
        <g transform="matrix(1,0,0,1,0,-439.201)">
            <path d="M729.015,509.691C744.09,509.691 752.733,501.651 752.733,489.792L752.733,489.389C752.733,476.123 743.487,469.289 728.412,469.289L697.658,469.289L697.658,509.691L729.015,509.691ZM666.703,441.35L731.025,441.35C748.914,441.35 762.784,446.375 772.03,455.621C779.869,463.46 784.09,474.515 784.09,487.781L784.09,488.184C784.09,510.897 771.828,525.168 753.939,531.801L788.311,582.052L752.13,582.052L721.98,537.027L697.658,537.027L697.658,582.052L666.703,582.052L666.703,441.35Z" style="fill:rgb(29,29,27);fill-rule:nonzero;"/>
        </g>
        <g transform="matrix(1,0,0,1,0,-439.201)">
            <path d="M918.963,512.104L918.963,511.702C918.963,487.582 901.275,467.481 876.35,467.481C851.426,467.481 834.139,487.179 834.139,511.3L834.139,511.702C834.139,535.822 851.828,555.922 876.753,555.922C901.677,555.922 918.963,536.224 918.963,512.104M801.778,512.104L801.778,511.702C801.778,471.702 833.336,438.938 876.753,438.938C920.169,438.938 951.325,471.3 951.325,511.3L951.325,511.702C951.325,551.702 919.767,584.465 876.35,584.465C832.934,584.465 801.778,552.104 801.778,512.104" style="fill:rgb(29,29,27);fill-rule:nonzero;"/>
        </g>
        <g transform="matrix(1,0,0,1,0,-439.201)">
            <path d="M974.843,441.35L1003.38,441.35L1069.32,527.982L1069.32,441.35L1099.87,441.35L1099.87,582.053L1073.54,582.053L1005.39,492.606L1005.39,582.053L974.843,582.053L974.843,441.35Z" style="fill:rgb(29,29,27);fill-rule:nonzero;"/>
        </g>
        <g transform="matrix(1,0,0,1,0,-439.201)">
            <path d="M1123.38,512.104L1123.38,511.702C1123.38,471.702 1154.54,438.938 1197.15,438.938C1222.48,438.938 1237.76,445.772 1252.43,458.235L1232.93,481.752C1222.08,472.707 1212.43,467.481 1196.15,467.481C1173.64,467.481 1155.75,487.38 1155.75,511.3L1155.75,511.702C1155.75,537.43 1173.43,556.325 1198.36,556.325C1209.62,556.325 1219.67,553.51 1227.51,547.882L1227.51,527.782L1196.35,527.782L1196.35,501.049L1257.45,501.049L1257.45,562.154C1242.98,574.416 1223.08,584.465 1197.36,584.465C1153.54,584.465 1123.38,553.711 1123.38,512.104" style="fill:rgb(29,29,27);fill-rule:nonzero;"/>
        </g>
        <g transform="matrix(1,0,0,1,0,-439.201)">
            <path d="M1283.18,441.35L1389.32,441.35L1389.32,468.888L1313.94,468.888L1313.94,497.43L1380.27,497.43L1380.27,524.968L1313.94,524.968L1313.94,554.516L1390.32,554.516L1390.32,582.053L1283.18,582.053L1283.18,441.35Z" style="fill:rgb(29,29,27);fill-rule:nonzero;"/>
        </g>
        <g transform="matrix(1,0,0,1,0,-439.201)">
            <path d="M1476.15,509.691C1491.22,509.691 1499.87,501.651 1499.87,489.792L1499.87,489.389C1499.87,476.123 1490.62,469.289 1475.55,469.289L1444.79,469.289L1444.79,509.691L1476.15,509.691ZM1413.84,441.35L1478.16,441.35C1496.05,441.35 1509.92,446.375 1519.16,455.621C1527,463.46 1531.22,474.515 1531.22,487.781L1531.22,488.184C1531.22,510.897 1518.96,525.168 1501.07,531.801L1535.44,582.052L1499.26,582.052L1469.11,537.027L1444.79,537.027L1444.79,582.052L1413.84,582.052L1413.84,441.35Z" style="fill:rgb(29,29,27);fill-rule:nonzero;"/>
        </g>
        <g transform="matrix(1,0,0,1,0,-439.201)">
            <rect x="1554.74" y="549.893" width="32.563" height="32.16" style="fill:rgb(29,29,27);fill-rule:nonzero;"/>
        </g>
    </g>
</svg>
