<svg width="100%" height="100%" viewBox="0 0 1721 215" version="1.1" xmlns="http://www.w3.org/2000/svg" xmlns:xlink="http://www.w3.org/1999/xlink" xml:space="preserve" style="fill-rule:evenodd;clip-rule:evenodd;stroke-linejoin:round;stroke-miterlimit:1.41421;">
    <g transform="matrix(8.33333,0,0,8.33333,-31070,-11761.6)">
        <path d="M3904.41,1412.51C3908.22,1412.51 3910.5,1414.12 3910.5,1416.8L3910.5,1419.83C3910.5,1421.49 3909.64,1422.64 3907.95,1423.27L3906.43,1423.83L3907.95,1424.39C3909.64,1425.01 3910.5,1426.16 3910.5,1427.8L3910.5,1431.97C3910.5,1435.43 3906.7,1435.94 3904.44,1435.94C3902.18,1435.94 3898.38,1435.43 3898.38,1431.97L3898.38,1427.76L3901.96,1427.76L3901.96,1430.86C3901.96,1432.23 3902.98,1433.19 3904.44,1433.19C3905.92,1433.19 3906.92,1432.26 3906.92,1430.88L3906.92,1427.57C3906.92,1426.22 3905.86,1425.23 3904.41,1425.23L3903.15,1425.23L3903.15,1422.54L3904.44,1422.54C3905.9,1422.54 3906.92,1421.59 3906.92,1420.23L3906.92,1417.6C3906.92,1416.23 3905.89,1415.26 3904.41,1415.26C3902.94,1415.26 3901.96,1416.19 3901.96,1417.57L3901.96,1420.09L3898.38,1420.09L3898.38,1416.8C3898.38,1414.12 3900.63,1412.51 3904.41,1412.51M3904.41,1411.92C3900.35,1411.92 3897.78,1413.75 3897.78,1416.8L3897.78,1420.69L3902.55,1420.69L3902.55,1417.57C3902.55,1416.57 3903.24,1415.86 3904.41,1415.86C3905.61,1415.86 3906.33,1416.6 3906.33,1417.6L3906.33,1420.23C3906.33,1421.2 3905.64,1421.94 3904.44,1421.94L3902.55,1421.94L3902.55,1425.83L3904.41,1425.83C3905.61,1425.83 3906.33,1426.6 3906.33,1427.57L3906.33,1430.88C3906.33,1431.88 3905.64,1432.6 3904.44,1432.6C3903.27,1432.6 3902.55,1431.86 3902.55,1430.86L3902.55,1427.17L3897.78,1427.17L3897.78,1431.97C3897.78,1435.03 3900.38,1436.54 3904.44,1436.54C3908.52,1436.54 3911.09,1435.03 3911.09,1431.97L3911.09,1427.8C3911.09,1425.83 3910.01,1424.51 3908.15,1423.83C3910.01,1423.14 3911.09,1421.8 3911.09,1419.83L3911.09,1416.8C3911.09,1413.75 3908.49,1411.92 3904.41,1411.92" style="fill:rgb(89,89,92);fill-rule:nonzero;"/>
    </g>
    <g transform="matrix(8.33333,0,0,8.33333,-31070,-11761.6)">
        <path d="M3918.06,1435.46L3914.49,1435.46L3914.49,1431.74L3918.06,1431.74L3918.06,1435.46ZM3918.66,1431.14L3913.89,1431.14L3913.89,1436.05L3918.66,1436.05L3918.66,1431.14Z" style="fill:rgb(89,89,92);fill-rule:nonzero;"/>
    </g>
    <g transform="matrix(8.33333,0,0,8.33333,-31070,-11761.6)">
        <path d="M3928.19,1412.51C3932,1412.51 3934.28,1414.12 3934.28,1416.8L3934.28,1431.97C3934.28,1435.43 3930.48,1435.94 3928.22,1435.94C3925.95,1435.94 3922.15,1435.43 3922.15,1431.97L3922.15,1416.8C3922.15,1414.12 3924.41,1412.51 3928.19,1412.51M3928.22,1433.19C3929.7,1433.19 3930.7,1432.26 3930.7,1430.88L3930.7,1417.6C3930.7,1416.23 3929.67,1415.26 3928.19,1415.26C3926.72,1415.26 3925.74,1416.19 3925.74,1417.57L3925.74,1430.86C3925.74,1432.23 3926.75,1433.19 3928.22,1433.19M3928.19,1411.92C3924.13,1411.92 3921.56,1413.75 3921.56,1416.8L3921.56,1431.97C3921.56,1435.03 3924.16,1436.54 3928.22,1436.54C3932.3,1436.54 3934.87,1435.03 3934.87,1431.97L3934.87,1416.8C3934.87,1413.75 3932.27,1411.92 3928.19,1411.92M3928.22,1432.6C3927.04,1432.6 3926.33,1431.86 3926.33,1430.86L3926.33,1417.57C3926.33,1416.57 3927.01,1415.86 3928.19,1415.86C3929.39,1415.86 3930.1,1416.6 3930.1,1417.6L3930.1,1430.88C3930.1,1431.88 3929.42,1432.6 3928.22,1432.6" style="fill:rgb(89,89,92);fill-rule:nonzero;"/>
    </g>
    <g transform="matrix(8.33333,0,0,8.33333,-31070,-11761.6)">
        <path d="M3748.3,1434.85L3736.32,1434.85L3730.33,1424.48L3736.32,1414.11L3748.3,1414.11L3754.28,1424.48L3748.3,1434.85ZM3749.74,1412.97C3749.51,1412.56 3749.03,1412.28 3748.56,1412.28L3736.05,1412.28C3735.58,1412.28 3735.11,1412.56 3734.87,1412.97L3728.62,1423.8C3728.38,1424.21 3728.38,1424.76 3728.62,1425.16L3734.87,1436C3735.11,1436.4 3735.58,1436.68 3736.05,1436.68L3748.56,1436.68C3749.03,1436.68 3749.51,1436.4 3749.74,1436L3755.99,1425.16C3756.23,1424.76 3756.23,1424.21 3755.99,1423.8L3749.74,1412.97Z" style="fill:rgb(89,89,92);fill-rule:nonzero;"/>
    </g>
    <g transform="matrix(8.33333,0,0,8.33333,-31070,-11761.6)">
        <path d="M3746.65,1421.87L3743.55,1421.87L3742.31,1423.11L3741.06,1421.87L3737.96,1421.87L3737.96,1420.14L3746.65,1420.14L3746.65,1421.87ZM3746.65,1425.12L3745.9,1425.87L3745.9,1427.29C3745.9,1428.14 3745.22,1428.82 3744.37,1428.82L3740.24,1428.82C3739.4,1428.82 3738.71,1428.14 3738.71,1427.29L3738.71,1425.87L3737.96,1425.12L3737.96,1423.57L3740.86,1423.57L3740.86,1426.62C3740.86,1426.89 3741.07,1427.11 3741.35,1427.11L3743.27,1427.11C3743.53,1427.11 3743.75,1426.89 3743.75,1426.62L3743.75,1423.57L3746.65,1423.57L3746.65,1425.12ZM3746.56,1416.19L3738.06,1416.19C3737.73,1416.19 3737.41,1416.37 3737.25,1416.65L3732.99,1424.02C3732.84,1424.3 3732.84,1424.67 3732.99,1424.94L3737.25,1432.31C3737.41,1432.59 3737.73,1432.77 3738.06,1432.77L3746.56,1432.77C3746.88,1432.77 3747.2,1432.59 3747.36,1432.31L3751.61,1424.94C3751.78,1424.67 3751.78,1424.3 3751.61,1424.02L3747.36,1416.65C3747.2,1416.37 3746.88,1416.19 3746.56,1416.19" style="fill:rgb(89,89,92);fill-rule:nonzero;"/>
    </g>
    <g transform="matrix(8.33333,0,0,8.33333,-31070,-11761.6)">
        <path d="M3769.48,1411.92L3767.57,1432.57L3765.62,1411.92L3760.31,1411.92L3763.24,1436.66L3771.9,1436.66L3774.8,1411.92L3769.48,1411.92Z" style="fill:rgb(89,89,92);fill-rule:nonzero;"/>
    </g>
    <g transform="matrix(8.33333,0,0,8.33333,-31070,-11761.6)">
        <path d="M3783.04,1415.33L3784.53,1427.52L3781.55,1427.52L3783.04,1415.33ZM3778.71,1411.92L3775.45,1436.66L3780.44,1436.66L3781.03,1431.64L3785.04,1431.64L3785.67,1436.66L3790.62,1436.66L3787.37,1411.92L3778.71,1411.92Z" style="fill:rgb(89,89,92);fill-rule:nonzero;"/>
    </g>
    <g transform="matrix(8.33333,0,0,8.33333,-31070,-11761.6)">
        <path d="M3798.54,1423.33L3800.84,1423.33C3802.09,1423.33 3802.48,1422.53 3802.48,1421.15L3802.48,1418.2C3802.48,1416.82 3802.09,1416.05 3800.84,1416.05L3798.54,1416.05L3798.54,1423.33ZM3793.55,1411.92L3803.26,1411.92C3807.38,1411.92 3807.47,1414.85 3807.47,1417.42L3807.47,1421.96C3807.47,1424.53 3807.38,1427.46 3803.26,1427.46L3798.54,1427.46L3798.54,1436.66L3793.55,1436.66L3793.55,1411.92Z" style="fill:rgb(89,89,92);fill-rule:nonzero;"/>
    </g>
    <g transform="matrix(8.33333,0,0,8.33333,-31070,-11761.6)">
        <path d="M3815.8,1431.22C3815.8,1432.27 3816.55,1433.04 3817.77,1433.04C3819.03,1433.04 3819.74,1432.3 3819.74,1431.25L3819.74,1417.36C3819.74,1416.32 3818.99,1415.54 3817.74,1415.54C3816.52,1415.54 3815.8,1416.29 3815.8,1417.33L3815.8,1431.22ZM3824.73,1432.39C3824.73,1435.58 3822.04,1437.16 3817.77,1437.16C3813.53,1437.16 3810.81,1435.58 3810.81,1432.39L3810.81,1416.53C3810.81,1413.33 3813.5,1411.41 3817.74,1411.41C3822.01,1411.41 3824.73,1413.33 3824.73,1416.53L3824.73,1432.39Z" style="fill:rgb(89,89,92);fill-rule:nonzero;"/>
    </g>
    <g transform="matrix(8.33333,0,0,8.33333,-31070,-11761.6)">
        <path d="M3833.36,1416.05L3833.36,1421.84L3835.66,1421.84C3836.91,1421.84 3837.3,1421.07 3837.3,1419.69L3837.3,1418.2C3837.3,1416.82 3836.91,1416.05 3835.66,1416.05L3833.36,1416.05ZM3837.3,1432.15L3837.3,1428.14C3837.3,1426.77 3836.91,1425.96 3835.66,1425.96L3833.36,1425.96L3833.36,1436.66L3828.37,1436.66L3828.37,1411.92L3838.08,1411.92C3842.2,1411.92 3842.29,1414.85 3842.29,1417.42L3842.29,1418.14C3842.29,1420.59 3842.2,1423.6 3838.11,1423.99C3842.2,1424.32 3842.29,1427.04 3842.29,1429.46L3842.29,1433.16C3842.29,1434.54 3842.32,1436.03 3842.56,1436.66L3837.63,1436.66C3837.3,1435.88 3837.3,1433.73 3837.3,1432.15" style="fill:rgb(89,89,92);fill-rule:nonzero;"/>
    </g>
    <g transform="matrix(8.33333,0,0,8.33333,-31070,-11761.6)">
        <path d="M3846.06,1411.92L3846.06,1436.66L3856.42,1436.66L3856.42,1432.54L3851.04,1432.54L3851.04,1411.92L3846.06,1411.92Z" style="fill:rgb(89,89,92);fill-rule:nonzero;"/>
    </g>
    <g transform="matrix(8.33333,0,0,8.33333,-31070,-11761.6)">
        <rect x="3859.4" y="1411.92" width="4.987" height="24.732" style="fill:rgb(89,89,92);fill-rule:nonzero;"/>
    </g>
    <g transform="matrix(8.33333,0,0,8.33333,-31070,-11761.6)">
        <path d="M3867.34,1411.92L3867.34,1416.05L3870.69,1416.05L3870.69,1436.66L3875.68,1436.66L3875.68,1416.05L3879.05,1416.05L3879.05,1411.92L3867.34,1411.92Z" style="fill:rgb(89,89,92);fill-rule:nonzero;"/>
    </g>
    <g transform="matrix(8.33333,0,0,8.33333,-31070,-11761.6)">
        <path d="M3882.03,1411.92L3882.03,1436.66L3893.08,1436.66L3893.08,1432.54L3887.02,1432.54L3887.02,1425.96L3892.9,1425.96L3892.9,1421.84L3887.02,1421.84L3887.02,1416.05L3893.08,1416.05L3893.08,1411.92L3882.03,1411.92Z" style="fill:rgb(89,89,92);fill-rule:nonzero;"/>
    </g>
</svg>
