<?xml version="1.0" encoding="UTF-8" standalone="no"?>
<!DOCTYPE svg PUBLIC "-//W3C//DTD SVG 1.1//EN" "http://www.w3.org/Graphics/SVG/1.1/DTD/svg11.dtd">
<svg width="100%" height="100%" viewBox="0 0 292 306" version="1.1" xmlns="http://www.w3.org/2000/svg" xmlns:xlink="http://www.w3.org/1999/xlink" xml:space="preserve" style="fill-rule:evenodd;clip-rule:evenodd;stroke-linejoin:round;stroke-miterlimit:1.41421;">
    <g transform="matrix(1,0,0,1,-7055.58,-7032.09)">
        <path d="M7347.08,7152.47C7339.79,7212.21 7285.77,7231.15 7285.7,7234.47C7285.58,7241.26 7284.39,7307.99 7220.87,7338.09C7238.94,7316.28 7263.98,7285.43 7260.72,7246.07C7258.01,7212.55 7234.25,7192.96 7198.46,7181.51C7207.47,7133.76 7216.42,7086.02 7225.42,7038.29C7300.53,7051.02 7353.38,7082.64 7347.08,7152.47M7241.6,7061.35C7240.74,7061.25 7240.49,7060.24 7240.13,7061.07C7233.89,7094.11 7227.29,7130.28 7221.04,7163.39C7250.85,7175.51 7265.87,7190.24 7278.72,7212.1C7299.13,7200.08 7322.05,7181.91 7325.67,7148.99C7328.29,7125.28 7318.04,7105.22 7303.69,7091.51C7288.15,7076.51 7267.51,7067 7241.6,7061.35" style="fill:white;fill-rule:nonzero;"/>
    </g>
    <g transform="matrix(1,0,0,1,-7055.58,-7032.09)">
        <path d="M7213.37,7037.33C7213.91,7037.57 7195.36,7132.52 7186.49,7179.76C7145.14,7177.7 7110.61,7189.46 7099.89,7231.26C7091.02,7265.32 7100.07,7292.56 7108.85,7317.09C7084.7,7286.11 7068.41,7250.97 7085.52,7198.25C7086.53,7195.24 7047.12,7166.57 7057.24,7105.62C7068.58,7037.95 7140.04,7022.31 7213.37,7037.33M7191.68,7054.02C7191.83,7053.29 7192,7052.57 7191.44,7052.37C7135.87,7043.32 7084.27,7057.9 7077.09,7117.97C7073.99,7143.86 7088.28,7162.77 7100.32,7179.99C7120.63,7165.07 7142.47,7156.91 7172.66,7156.36C7178.76,7123.7 7185.52,7086.7 7191.68,7054.02" style="fill:white;fill-rule:nonzero;"/>
    </g>
    <g transform="matrix(1,0,0,1,-7055.58,-7032.09)">
        <path d="M7112.69,7280.41C7117.11,7252.84 7124.02,7222.14 7149.37,7223.59C7169.94,7224.83 7175.28,7241.9 7177.64,7256.74C7186.09,7243.22 7192.68,7228.45 7211.8,7233.4C7238.61,7240.23 7239.28,7273.9 7232.2,7302.39C7249.27,7278.42 7249.18,7242.71 7237.83,7223.35C7227.91,7206.51 7210.69,7197.8 7189.61,7193.29C7168.78,7188.77 7145.84,7193.9 7132.3,7206.1C7109.9,7226.23 7108.78,7250.79 7112.69,7280.41" style="fill:white;fill-rule:nonzero;"/>
    </g>
</svg>
