<?xml version="1.0" encoding="UTF-8" standalone="no"?>
<!DOCTYPE svg PUBLIC "-//W3C//DTD SVG 1.1//EN" "http://www.w3.org/Graphics/SVG/1.1/DTD/svg11.dtd">
<svg width="100%" height="100%" viewBox="0 0 60 60" version="1.1" xmlns="http://www.w3.org/2000/svg" xmlns:xlink="http://www.w3.org/1999/xlink" xml:space="preserve" style="fill-rule:evenodd;clip-rule:evenodd;stroke-linejoin:round;stroke-miterlimit:1.41421;">
    <g transform="matrix(1.03486,0,0,1.03486,-1249.58,-974.576)">
        <path d="M1257.32,997.742L1257.32,998.402L1256.66,998.402L1256.66,999.722L1258.64,999.722L1258.64,997.742L1257.32,997.742Z" style="fill:rgb(242,111,34);fill-rule:nonzero;"/>
        <path d="M1251.13,999.721L1253.89,999.721L1253.89,998.401L1251.13,998.401L1251.13,999.721ZM1245.6,999.721L1248.37,999.721L1248.37,998.401L1245.6,998.401L1245.6,999.721ZM1240.08,999.721L1242.84,999.721L1242.84,998.401L1240.08,998.401L1240.08,999.721ZM1234.55,999.721L1237.31,999.721L1237.31,998.401L1234.55,998.401L1234.55,999.721ZM1229.02,999.721L1231.79,999.721L1231.79,998.401L1229.02,998.401L1229.02,999.721ZM1223.49,999.721L1226.26,999.721L1226.26,998.401L1223.49,998.401L1223.49,999.721ZM1217.97,999.721L1220.73,999.721L1220.73,998.401L1217.97,998.401L1217.97,999.721ZM1212.44,999.721L1215.2,999.721L1215.2,998.401L1212.44,998.401L1212.44,999.721Z" style="fill:rgb(242,111,34);fill-rule:nonzero;"/>
        <path d="M1207.7,997.742L1207.7,999.722L1209.68,999.722L1209.68,998.402L1209.02,998.402L1209.02,997.742L1207.7,997.742Z" style="fill:rgb(242,111,34);fill-rule:nonzero;"/>
        <path d="M1207.7,956.288L1209.02,956.288L1209.02,953.526L1207.7,953.526L1207.7,956.288ZM1207.7,961.814L1209.02,961.814L1209.02,959.05L1207.7,959.05L1207.7,961.814ZM1207.7,967.343L1209.02,967.343L1209.02,964.579L1207.7,964.579L1207.7,967.343ZM1207.7,972.869L1209.02,972.869L1209.02,970.107L1207.7,970.107L1207.7,972.869ZM1207.7,978.396L1209.02,978.396L1209.02,975.632L1207.7,975.632L1207.7,978.396ZM1207.7,983.924L1209.02,983.924L1209.02,981.16L1207.7,981.16L1207.7,983.924ZM1207.7,989.45L1209.02,989.45L1209.02,986.688L1207.7,986.688L1207.7,989.45ZM1207.7,994.978L1209.02,994.978L1209.02,992.214L1207.7,992.214L1207.7,994.978Z" style="fill:rgb(242,111,34);fill-rule:nonzero;"/>
        <path d="M1207.7,948.782L1207.7,950.761L1209.02,950.761L1209.02,950.102L1209.68,950.102L1209.68,948.782L1207.7,948.782Z" style="fill:rgb(242,111,34);fill-rule:nonzero;"/>
        <path d="M1235.59,970.724L1239,970.724L1237.39,960.416L1235.59,970.724Z" style="fill:rgb(242,111,34);fill-rule:nonzero;"/>
        <path d="M1215.62,991.363L1265.24,991.363L1265.24,941.743L1215.62,941.743L1215.62,991.363ZM1256.75,944.045L1262.39,944.045L1262.39,949.69L1256.75,944.045ZM1247.34,953.197L1251.55,953.197L1251.55,979.91L1247.34,979.91L1247.34,953.197ZM1234.67,953.197L1240.24,953.197L1245.58,979.909L1240.52,979.909L1239.64,974.656L1234.91,974.656L1233.94,979.909L1229.29,979.909L1234.67,953.197Z" style="fill:rgb(242,111,34);fill-rule:nonzero;"/>
        <path d="M1257.65,949.771L1255.03,946.142L1211.21,946.142L1211.21,995.762L1260.84,995.762L1260.84,951.153L1257.65,949.771ZM1259.3,994.223L1212.76,994.223L1212.76,947.682L1259.3,947.682L1259.3,994.223Z" style="fill:rgb(242,111,34);fill-rule:nonzero;"/>
    </g>
</svg>
