<?xml version="1.0" encoding="UTF-8" standalone="no"?>
<!DOCTYPE svg PUBLIC "-//W3C//DTD SVG 1.1//EN" "http://www.w3.org/Graphics/SVG/1.1/DTD/svg11.dtd">
<svg width="100%" height="100%" viewBox="0 0 59 59" version="1.1" xmlns="http://www.w3.org/2000/svg" xmlns:xlink="http://www.w3.org/1999/xlink" xml:space="preserve" style="fill-rule:evenodd;clip-rule:evenodd;stroke-linejoin:round;stroke-miterlimit:1.41421;">
    <g transform="matrix(1.02807,0,0,1.02807,-568.354,-1180.85)">
        <clipPath id="_clip1">
            <rect x="552.835" y="1148.7" width="57.389" height="57.191"/>
        </clipPath>
        <g clip-path="url(#_clip1)">
            <path d="M559.825,1196.71L559.829,1178.99L556.588,1178.98L556.573,1196.71C556.569,1199.62 558.945,1202 561.845,1202L566.799,1201.99L566.794,1198.75L561.868,1198.75C560.742,1198.75 559.839,1198.41 559.829,1197.28M602.415,1158.21L602.403,1175.87L605.67,1175.87L605.676,1158.22C605.671,1155.3 603.302,1152.94 600.387,1152.94L595.296,1152.93L595.307,1156.19L600.383,1156.19C601.506,1156.19 602.411,1156.55 602.412,1157.66M606.472,1184.61L590.103,1184.6L590.1,1182.75L606.465,1182.75L606.472,1184.61ZM606.463,1190.54L590.097,1190.54L590.103,1188.35L606.472,1188.38L606.463,1190.54ZM606.457,1196.46L574.353,1196.44L574.344,1194.29L606.459,1194.31L606.457,1196.46ZM606.47,1202.12L574.357,1202.12L574.36,1200.21L606.45,1200.22L606.47,1202.12ZM579.224,1185.21L580.532,1181.2L581.833,1185.2L586.041,1185.2L582.624,1187.67L583.926,1191.69L580.52,1189.2L577.127,1191.68L578.406,1187.68L575.017,1185.2L579.224,1185.21ZM570.6,1178.99L570.59,1205.88L610.218,1205.89L610.224,1179L570.6,1178.99ZM588.693,1171.85L580.833,1171.84L580.839,1152.46L588.701,1152.46L588.693,1171.85ZM577.07,1171.83L568.713,1171.83L568.717,1152.46L577.065,1152.46L577.07,1171.83ZM564.951,1171.84L556.586,1171.83L556.603,1152.45L564.965,1152.45L564.951,1171.84ZM592.464,1148.71L552.834,1148.7L552.834,1175.59L592.44,1175.61L592.464,1148.71Z" style="fill:rgb(242,111,34);fill-rule:nonzero;"/>
        </g>
    </g>
</svg>
