<?xml version="1.0" encoding="UTF-8" standalone="no"?>
<!DOCTYPE svg PUBLIC "-//W3C//DTD SVG 1.1//EN" "http://www.w3.org/Graphics/SVG/1.1/DTD/svg11.dtd">
<svg width="100%" height="100%" viewBox="0 0 59 59" version="1.1" xmlns="http://www.w3.org/2000/svg" xmlns:xlink="http://www.w3.org/1999/xlink" xml:space="preserve" style="fill-rule:evenodd;clip-rule:evenodd;stroke-linejoin:round;stroke-miterlimit:1.41421;">
    <g transform="matrix(0.968852,-4.93038e-32,-4.93038e-32,0.968852,-1165.69,-910.148)">
        <clipPath id="_clip1">
            <rect x="1203.16" y="940.497" width="60.897" height="58.72"/>
        </clipPath>
        <g clip-path="url(#_clip1)">
            <path d="M1260.73,975.114C1259.83,976.686 1258.14,977.639 1256.35,977.592C1255.73,977.572 1254.66,977.57 1253.43,977.567C1252.74,976.377 1248.72,969.321 1247.62,967.421C1249.31,966.446 1253.77,963.911 1255.45,962.94C1256.82,965.307 1259.72,970.346 1260.67,972.11C1260.87,972.489 1261.11,973.079 1261.11,973.746C1261.11,974.184 1261.14,974.424 1260.87,974.883M1253.2,988.04C1252.57,989.124 1251.35,989.795 1250.02,989.802L1241.1,989.774C1241.1,989.774 1241.11,989.819 1241.11,989.826C1239.54,987.558 1238.41,985.91 1237.9,985.132C1238.42,984.39 1239.58,982.719 1241.15,980.481C1241.2,980.486 1242.6,980.478 1242.6,980.478C1242.73,980.484 1253.62,980.481 1256.28,980.535C1256.75,980.543 1257.19,980.501 1257.63,980.439C1255.49,984.113 1254.34,986.076 1254.34,986.076M1263.26,970.718C1261.99,968.355 1257.46,960.536 1257.25,960.201L1256.53,958.937L1243.61,966.327C1243.61,966.327 1248.33,974.579 1250.02,977.547C1247.78,977.533 1245.52,977.541 1244.09,977.533C1244.09,976.694 1244.11,971.13 1244.11,971.13L1234.32,985.116L1243.98,999.216C1243.98,999.216 1244.02,993.618 1244.02,992.718C1245.92,992.723 1250.01,992.735 1250.01,992.735C1252.4,992.745 1254.59,991.511 1255.75,989.517L1263.28,976.605C1263.8,975.711 1264.05,974.753 1264.06,973.755C1264.06,972.747 1264.06,972.219 1263.53,971.217M1230.34,980.423L1230.31,989.433C1227.54,989.453 1221.65,989.45 1219.65,989.388C1218.95,989.363 1217.7,989.156 1217,987.933C1216.56,987.168 1216.34,986.303 1216.35,985.446C1216.35,984.559 1216.57,983.678 1217.06,982.895C1217.37,982.365 1217.92,981.467 1218.56,980.376C1219.92,980.382 1227.04,980.424 1229.24,980.423M1214.54,981.372C1214.3,981.768 1214.11,982.173 1213.96,982.598C1211.84,978.899 1209.58,974.946 1209.58,974.946C1209.47,974.749 1209.42,974.447 1209.42,974.051C1209.43,972.849 1209.91,970.962 1210.61,969.775C1210.61,969.775 1214.22,963.561 1214.33,963.381C1217.11,963.153 1219.07,962.991 1219.92,962.924C1220.34,963.8 1221.21,965.654 1222.39,968.15L1222.32,968.111L1221.61,969.347C1221.55,969.44 1216.61,977.951 1215.23,980.232M1223.42,972.071C1224.18,972.462 1228.88,974.999 1228.88,974.999L1221.73,959.85L1203.16,961.317C1203.16,961.317 1209.26,964.146 1210.22,964.593C1209.37,966.069 1208.06,968.306 1208.06,968.306C1207.43,969.389 1206.48,971.811 1206.49,973.979C1206.46,974.867 1206.64,975.717 1207.03,976.424L1214.44,989.402C1215.48,991.194 1217.33,992.257 1219.55,992.334C1222.24,992.412 1231.38,992.372 1231.77,992.376L1233.24,992.37L1233.29,977.501C1233.29,977.501 1223.73,977.453 1220.27,977.434C1221.48,975.41 1222.31,973.955 1223.05,972.697M1220.06,954.002C1221.39,951.64 1224.22,946.698 1225.26,945.014C1225.88,944.006 1226.84,943.434 1227.87,943.437C1227.87,943.437 1232.57,943.463 1236.7,943.481C1236.4,943.845 1236.13,944.214 1235.89,944.642C1234.83,946.524 1229.77,955.236 1227.86,958.533C1226.17,957.558 1222.56,955.439 1220.89,954.48M1238.46,946.067C1239.36,944.492 1241.02,943.503 1242.79,943.523C1244.08,943.512 1245.3,944.205 1245.95,945.351C1245.95,945.351 1250.3,953.178 1250.33,953.246C1249.2,955.68 1248.39,957.442 1248,958.293C1247.04,958.199 1245.07,957.993 1242.38,957.744C1242.35,957.686 1237.79,949.679 1237.09,948.465C1237.7,947.395 1238.08,946.769 1238.33,946.301M1229.66,961.287C1229.86,960.954 1232.9,955.718 1235.39,951.416C1236.53,953.42 1237.67,955.415 1238.41,956.708C1237.75,957.11 1233.25,959.79 1233.25,959.79L1249.79,961.436L1256.9,946.002C1256.9,946.002 1252.16,948.792 1251.46,949.208C1250.52,947.504 1248.5,943.884 1248.5,943.884C1247.33,941.853 1245.15,940.568 1242.79,940.563L1227.88,940.497C1225.83,940.493 1223.91,941.589 1222.77,943.451C1221.35,945.734 1216.97,953.49 1216.79,953.809L1216.07,955.077L1228.92,962.57L1229.66,961.287Z" style="fill:rgb(242,111,34);fill-rule:nonzero;"/>
        </g>
    </g>
</svg>
