<?xml version="1.0" encoding="UTF-8" standalone="no"?>
<!DOCTYPE svg PUBLIC "-//W3C//DTD SVG 1.1//EN" "http://www.w3.org/Graphics/SVG/1.1/DTD/svg11.dtd">
<svg width="100%" height="100%" viewBox="0 0 59 59" version="1.1" xmlns="http://www.w3.org/2000/svg" xmlns:xlink="http://www.w3.org/1999/xlink" xml:space="preserve" style="fill-rule:evenodd;clip-rule:evenodd;stroke-linejoin:round;stroke-miterlimit:1.41421;">
    <g transform="matrix(1,0,0,1,-225.147,-939.859)">
        <clipPath id="_clip1">
            <rect x="225.176" y="939.889" width="58.942" height="58.939"/>
        </clipPath>
        <g clip-path="url(#_clip1)">
            <path d="M278.666,969.354C278.666,956.083 267.908,945.327 254.639,945.327C241.368,945.327 230.612,956.083 230.612,969.354C230.612,982.625 241.368,993.381 254.639,993.381C267.908,993.381 278.666,982.625 278.666,969.354M253.196,988.492L253.196,990.44C250.143,990.232 247.268,989.371 244.706,988.002L245.059,987.391C244.633,987.165 244.217,986.922 243.809,986.667L243.456,987.279C240.731,985.572 238.421,983.262 236.714,980.536L237.326,980.182C237.07,979.776 236.828,979.36 236.602,978.935L235.991,979.287C234.622,976.724 233.76,973.849 233.553,970.797L235.501,970.797C235.464,970.32 235.441,969.84 235.441,969.354C235.441,968.868 235.464,968.388 235.501,967.911L233.553,967.911C233.76,964.858 234.622,961.984 235.991,959.421L236.602,959.773C236.828,959.347 237.07,958.932 237.326,958.526L236.714,958.172C238.421,955.446 240.729,953.136 243.456,951.429L243.809,952.041C244.217,951.786 244.633,951.543 245.059,951.316L244.706,950.706C247.268,949.336 250.143,948.475 253.196,948.268L253.196,950.216C253.673,950.181 254.153,950.156 254.639,950.156C255.125,950.156 255.605,950.181 256.082,950.216L256.082,948.268C259.135,948.475 262.008,949.336 264.572,950.706L264.219,951.316C264.645,951.543 265.061,951.786 265.468,952.041L265.821,951.429C268.547,953.136 270.857,955.446 272.564,958.172L271.952,958.526C272.207,958.932 272.45,959.347 272.676,959.773L273.286,959.421C274.657,961.984 275.518,964.858 275.725,967.911L273.777,967.911C273.812,968.388 273.836,968.868 273.836,969.354C273.836,969.84 273.812,970.32 273.777,970.797L275.725,970.797C275.518,973.849 274.657,976.724 273.286,979.287L272.676,978.935C272.45,979.36 272.207,979.776 271.952,980.182L272.564,980.536C270.857,983.262 268.547,985.572 265.821,987.279L265.468,986.667C265.061,986.922 264.645,987.165 264.219,987.391L264.572,988.002C262.008,989.371 259.135,990.232 256.082,990.44L256.082,988.492C255.605,988.527 255.125,988.552 254.639,988.552C254.153,988.552 253.673,988.527 253.196,988.492" style="fill:rgb(242,111,34);fill-rule:nonzero;"/>
            <path d="M267.958,960.935L255.358,968.126C255.146,968.002 254.902,967.925 254.638,967.925C254.446,967.925 254.263,967.964 254.095,968.033L243.613,961.786L242.695,963.313L253.232,969.59C253.286,969.914 253.45,970.199 253.682,970.411L246.062,984.158L246.538,984.422L254.149,970.693C254.302,970.748 254.465,970.784 254.638,970.784C255.428,970.784 256.067,970.143 256.067,969.354C256.067,969.335 256.063,969.317 256.063,969.297L268.643,962.12L267.958,960.935Z" style="fill:rgb(242,111,34);fill-rule:nonzero;"/>
            <path d="M237.274,989.498C226.168,979.917 224.928,963.089 234.508,951.983C243.385,941.695 258.481,939.881 269.484,947.288L271.886,947.111L271.756,945.349C259.508,936.608 242.341,938.485 232.322,950.097C221.702,962.408 223.078,981.063 235.389,991.683C235.525,991.802 235.667,991.91 235.805,992.026L235.651,989.921L237.614,989.777C237.501,989.683 237.385,989.594 237.274,989.498" style="fill:rgb(242,111,34);fill-rule:nonzero;"/>
            <path d="M274.837,947.875L274.978,949.777L272.815,949.938C283.179,959.622 284.136,975.9 274.789,986.732C266.322,996.547 252.196,998.65 241.36,992.395L238.743,992.589L238.866,994.263C251.001,1001.96 267.313,999.819 276.975,988.618C287.32,976.625 286.278,958.617 274.837,947.875" style="fill:rgb(242,111,34);fill-rule:nonzero;"/>
        </g>
    </g>
</svg>
