<?xml version="1.0" encoding="UTF-8" standalone="no"?>
<!DOCTYPE svg PUBLIC "-//W3C//DTD SVG 1.1//EN" "http://www.w3.org/Graphics/SVG/1.1/DTD/svg11.dtd">
<svg width="100%" height="100%" viewBox="0 0 59 59" version="1.1" xmlns="http://www.w3.org/2000/svg" xmlns:xlink="http://www.w3.org/1999/xlink" xml:space="preserve" style="fill-rule:evenodd;clip-rule:evenodd;stroke-linejoin:round;stroke-miterlimit:1.41421;">
    <g transform="matrix(0.971249,-4.70747e-32,-4.70747e-32,0.971249,-535.167,-912.534)">
        <clipPath id="_clip1">
            <rect x="551.008" y="943.318" width="60.747" height="53.203"/>
        </clipPath>
        <g clip-path="url(#_clip1)">
            <path d="M606.9,980.467C606.948,980.256 606.989,980.024 607.023,979.807C607.173,978.655 607.344,976.584 606.606,975.726C606.204,975.253 605.502,974.829 604.62,974.535C603.59,974.179 602.647,974.211 602.531,974.218L602.419,974.22L602.304,974.244C601.202,974.469 599.994,976.136 599.387,977.131C599.301,977.251 599.231,977.391 599.153,977.503C599.858,975.802 602.674,971.872 603.884,970.914C605.118,971.391 607.233,972.24 608.165,972.619C608.226,972.832 608.247,973.117 608.257,973.515C608.26,975.289 608.2,977.58 607.333,979.504M606.56,981.981C606.574,981.952 606.584,981.934 606.577,981.91C606.595,981.93 606.621,981.933 606.64,981.943C606.632,981.94 606.627,981.959 606.582,981.975M603.887,979.378C603.739,980.437 603.4,981.625 603.202,982.221C602.843,982.539 602.31,983.044 601.877,983.56C601.759,983.68 601.641,983.857 601.542,984.013C601.215,983.878 601.178,983.869 600.876,983.763C600.876,983.571 600.884,983.287 600.871,983.272C600.87,982.615 600.791,981.909 600.718,981.448C600.963,980.863 601.473,979.735 602.04,978.813C602.491,978.102 602.88,977.653 603.12,977.395C603.278,977.421 603.435,977.446 603.603,977.509C603.774,977.568 603.888,977.619 603.981,977.667C603.978,977.763 603.991,977.852 604.004,977.974C603.996,978.333 604.007,978.513 603.927,979.09M611.148,971.509C610.836,970.485 610.233,970.06 609.803,969.871C609.226,969.633 605.704,968.233 604.512,967.766C604.1,967.61 603.413,967.525 602.572,968.001C600.447,969.225 596.275,975.145 595.879,977.485C595.587,979.306 596.89,980.829 597.523,981.444L597.531,981.558C597.582,981.828 597.726,982.681 597.717,983.284C597.72,983.277 597.708,984.843 597.708,984.843L597.68,985.974L598.746,986.355L602.937,987.838L603.584,986.683C603.77,986.36 604.101,985.815 604.28,985.591C604.527,985.3 604.877,984.966 605.16,984.712C605.408,984.835 605.695,984.936 605.994,984.958C607.139,985.086 608.193,984.408 609.14,982.951C610.821,980.382 612.329,975.351 611.541,972.79M566.139,946.633C566.178,946.453 566.26,946.231 566.587,946.255C567,946.274 567.456,946.717 567.534,947.664C568.019,953.353 566.14,963.865 565.452,967.826L565.209,969.276C564.48,973.825 565.524,975.188 565.914,975.568L568.108,973.617C568.108,973.617 567.605,972.786 568.106,969.739L568.343,968.335C569.115,963.885 570.962,953.481 570.454,947.41C570.238,944.737 568.374,943.41 566.757,943.324C565.048,943.228 563.603,944.352 563.274,946.06C560.343,960.79 554.923,973.573 554.869,973.69L557.572,974.838C557.627,974.714 562.068,967.095 565.059,952.063M604.78,993.46L604.825,996.388L607.837,996.339L607.779,993.418L604.78,993.46ZM568.251,993.58C568.127,992.545 567.814,991.115 567.158,989.626C568.418,990.16 571.27,991.357 571.27,991.357C571.27,991.357 575.192,987.759 576.449,986.476C578.671,988.189 583.791,991.651 589.998,991.641C593.153,991.63 595.089,990.918 596.069,990.441C596.898,990.721 599.515,991.624 600.741,992.055C600.752,992.595 600.749,992.784 600.756,993.433C598.158,993.444 571.866,993.537 569.457,993.565M595.713,987.207L595.083,987.639C595.062,987.654 593.505,988.705 589.983,988.709C583.158,988.725 577.135,983.316 577.071,983.269L576.28,982.455C576.28,982.455 571.605,986.829 570.564,987.886C569.355,987.382 555.343,981.459 554.228,980.959C554.142,980.401 554.084,980.023 554.025,979.675C554.158,979.345 554.358,978.847 554.678,978.087C556.606,978.849 563.355,981.591 563.355,981.591C563.355,981.591 563.09,980.808 563.171,979.954C563.274,979.134 563.663,978.537 563.663,978.537L553.046,974.29L551.009,979.329L551.574,982.978L552.298,983.321C552.459,983.397 560.314,986.749 560.976,987.028C564.002,988.589 564.987,991.696 565.288,993.556L561.311,993.589L561.333,996.522L603.709,996.355L603.653,989.968L595.713,987.207ZM572.832,975.03C573.318,975.577 574.333,976.762 575.151,977.487L570.366,982.11C570.043,982.423 569.622,982.589 569.171,982.584C568.709,982.575 568.295,982.381 567.984,982.069C567.66,981.74 567.499,981.318 567.495,980.887C567.492,980.454 567.676,980.003 568.019,979.68L572.832,975.03ZM573.747,968.461C573.98,968.217 580.447,961.942 581.445,960.979C582.673,961.311 585.199,962.16 586.757,963.757C588.312,965.383 589.167,967.935 589.52,969.195C588.498,970.196 582.317,976.207 582.317,976.207C581.083,977.401 579.97,977.254 579.219,976.897C580.077,976.575 581.049,976.348 581.06,976.344L581.469,976.242L581.751,975.963C581.84,975.878 583.66,974.089 584.913,972.253C585.396,971.539 586.967,969.114 586.65,967.845C586.555,967.458 586.249,966.658 585.216,965.635C584.313,964.723 583.314,964.279 583.199,964.23L583.096,964.196L583.004,964.167C581.752,963.834 579.243,965.279 578.497,965.725C576.594,966.891 574.697,968.614 574.626,968.695L574.32,968.974L574.196,969.375C574.19,969.382 573.908,970.408 573.541,971.235C573.342,970.87 573.269,970.47 573.27,970.114C573.262,969.339 573.517,968.839 573.671,968.589M576.673,974.884C576.338,974.559 575.959,974.146 575.572,973.719C575.808,973.26 576.033,972.813 576.033,972.813C576.42,972.049 576.728,971.115 576.89,970.585C577.449,970.09 578.77,968.998 580.026,968.222C581.144,967.546 581.954,967.222 582.361,967.095C582.584,967.23 582.877,967.428 583.153,967.702C583.436,968.001 583.606,968.229 583.707,968.367C583.57,968.761 583.206,969.537 582.491,970.603C581.661,971.813 580.491,973.063 579.97,973.605C579.428,973.746 578.463,974.013 577.663,974.374C577.316,974.511 577.131,974.631 576.824,974.8M571.017,972.701C569.709,973.974 565.977,977.572 565.977,977.572C565.041,978.478 564.569,979.699 564.574,980.91C564.584,982.05 565.001,983.208 565.861,984.103C566.713,984.991 567.885,985.495 569.112,985.515C570.353,985.534 571.518,985.069 572.403,984.213C572.403,984.213 575.861,980.869 577.528,979.27C579.303,980.29 581.936,980.641 584.356,978.324L592.744,970.15L592.584,969.369C592.551,969.169 591.579,964.534 588.856,961.729C586.121,958.89 581.462,957.957 581.257,957.927L580.52,957.781L571.468,966.604L571.386,966.717C570.881,967.438 570.332,968.719 570.34,970.164C570.339,970.999 570.312,971.438 570.783,972.28" style="fill:rgb(242,111,34);fill-rule:nonzero;"/>
        </g>
    </g>
</svg>
