<?xml version="1.0" encoding="UTF-8" standalone="no"?>
<!DOCTYPE svg PUBLIC "-//W3C//DTD SVG 1.1//EN" "http://www.w3.org/Graphics/SVG/1.1/DTD/svg11.dtd">
<svg width="100%" height="100%" viewBox="0 0 59 59" version="1.1" xmlns="http://www.w3.org/2000/svg" xmlns:xlink="http://www.w3.org/1999/xlink" xml:space="preserve" style="fill-rule:evenodd;clip-rule:evenodd;stroke-linejoin:round;stroke-miterlimit:1.41421;">
    <g transform="matrix(0.837771,0,0,0.837771,-729.56,-782.485)">
        <clipPath id="_clip1">
            <rect x="870.836" y="939.803" width="70.427" height="58.838"/>
        </clipPath>
        <g clip-path="url(#_clip1)">
            <path d="M916.381,977.84L915.826,977.927C913.556,978.233 911.893,979.152 910.879,980.65C910.06,981.829 909.827,983.162 909.827,984.344C909.817,985.272 909.983,986.098 910.118,986.694L910.163,986.855L910.227,986.984C911.749,990.384 914.758,992.867 916.251,993.949L916.258,995.003L891.027,995.028L891.029,994.295C894.014,992.655 897.949,989.111 897.94,984.044C897.946,983.226 897.847,982.369 897.625,981.468C895.681,973.757 881.062,969.843 876.094,968.725L876.095,967.101L914.131,967.056C914.126,967.066 914.136,968.98 914.136,968.98C914.136,968.98 919.51,968.975 921.58,968.973C921.584,968.984 921.584,970.882 921.584,970.882C921.584,970.882 934.327,970.863 936.712,970.866C931.252,975.902 923.207,976.973 918.657,977.551M940.963,968.813C940.47,967.84 939.478,967.272 938.218,967.27C938.218,967.27 927.957,967.288 925.175,967.274C925.186,967.274 925.181,965.375 925.181,965.375C925.181,965.375 919.801,965.372 917.722,965.381C917.727,965.363 917.737,963.457 917.737,963.457L872.496,963.501L872.5,971.654L873.972,971.945C881.095,973.327 892.876,977.381 894.128,982.342C895.644,988.322 888.792,991.403 888.509,991.535L887.428,992.001L887.417,993.173L887.431,998.64L919.861,998.59L919.847,991.991L918.993,991.455C918.955,991.433 915.165,989.059 913.588,985.673C913.509,985.337 913.414,984.872 913.428,984.334C913.412,983.754 913.516,983.158 913.839,982.671C914.266,982.049 915.103,981.655 916.301,981.499L916.855,981.434C922.126,980.735 934.478,979.109 940.468,972.185L940.516,972.122L940.561,972.058C941.024,971.425 941.261,970.723 941.261,970.037C941.253,969.605 941.272,969.379 941.066,969.001M878.436,959.665C878.436,959.665 878.431,959.673 879.629,960.861L884.918,960.86C882.514,958.66 881.102,957.472 880.373,956.858C883.15,956.91 888.682,957.008 888.682,957.008C888.682,957.008 886.75,952.895 885.962,951.241C888.779,952.04 893.917,953.48 893.917,953.48C893.917,953.48 894.31,949.278 894.505,947.276C896.709,948.707 900.997,951.5 900.997,951.5C900.997,951.5 903.607,947.71 904.894,945.812C906.193,947.689 908.803,951.483 908.803,951.483C908.803,951.483 913.092,948.681 915.293,947.251C915.49,949.254 915.899,953.459 915.899,953.459C915.899,953.459 921.031,952.004 923.83,951.188C923.076,952.844 921.149,956.978 921.149,956.978C921.149,956.978 926.671,956.869 929.446,956.81C928.738,957.403 927.313,958.595 923.727,962.014L929.011,962.01L931.407,959.609C933.271,958.03 938.975,953.22 938.975,953.22C938.975,953.22 929.493,953.403 926.532,953.467C927.448,951.499 930.07,945.882 930.07,945.882C930.07,945.882 921.368,948.365 918.876,949.084C918.682,947.036 918.141,941.33 918.141,941.33C918.141,941.33 911.563,945.634 909.712,946.827C908.564,945.139 904.894,939.803 904.894,939.803C904.894,939.803 901.237,945.155 900.085,946.84C898.238,945.635 891.634,941.365 891.634,941.365C891.634,941.365 891.109,947.064 890.932,949.119C888.442,948.404 879.727,945.939 879.727,945.939C879.727,945.939 882.371,951.557 883.29,953.519C880.321,953.453 870.835,953.298 870.835,953.298C870.835,953.298 875.621,957.314 877.498,958.882" style="fill:rgb(242,111,34);fill-rule:nonzero;"/>
        </g>
    </g>
</svg>
