<?xml version="1.0" encoding="UTF-8" standalone="no"?>
<!DOCTYPE svg PUBLIC "-//W3C//DTD SVG 1.1//EN" "http://www.w3.org/Graphics/SVG/1.1/DTD/svg11.dtd">
<svg width="100%" height="100%" viewBox="0 0 60 60" version="1.1" xmlns="http://www.w3.org/2000/svg" xmlns:xlink="http://www.w3.org/1999/xlink" xml:space="preserve" style="fill-rule:evenodd;clip-rule:evenodd;stroke-linejoin:round;stroke-miterlimit:1.41421;">
    <g transform="matrix(1.02893,-4.93038e-32,-4.93038e-32,1.02893,-568.253,-968.814)">
        <clipPath id="_clip1">
            <rect x="552.277" y="941.571" width="58.314" height="58.323"/>
        </clipPath>
        <g clip-path="url(#_clip1)">
            <path d="M590.426,966.818L590.426,978.462C590.426,979.856 591.145,980.44 592.405,980.44C593.529,980.44 594.607,979.992 595.55,979.27L595.55,966.099C594.607,965.288 593.529,964.839 592.405,964.839C591.145,964.839 590.426,965.424 590.426,966.818" style="fill:rgb(242,111,34);fill-rule:nonzero;"/>
            <path d="M607.26,950.866L600.67,944.276L607.26,944.276L607.26,950.866ZM598.967,986.014C598.967,989.61 597.259,991.274 593.662,991.274L591.864,991.274C588.628,991.274 587.098,989.79 587.098,986.553L587.098,985.25L590.291,985.25L590.291,986.42C590.291,987.632 590.83,988.306 592.044,988.306L593.797,988.306C595.012,988.306 595.55,987.632 595.55,986.42L595.55,982.013C594.472,983.001 593.168,983.675 591.37,983.675C588.448,983.675 587.008,981.743 587.008,978.866L587.008,966.412C587.008,963.534 588.448,961.602 591.37,961.602C593.347,961.602 594.742,962.547 595.55,963.356L595.55,961.872L598.967,961.872L598.967,986.014ZM583.142,986.15L579.636,986.15L579.636,960.119L575.32,986.15L571.634,986.15L567.317,960.119L567.317,986.15L563.9,986.15L563.9,954.68L569.566,954.68L573.566,979.45L577.568,954.68L583.142,954.68L583.142,986.15ZM552.276,999.893L610.59,999.893L610.59,941.571L552.276,941.571L552.276,999.893Z" style="fill:rgb(242,111,34);fill-rule:nonzero;"/>
        </g>
    </g>
</svg>
