<?xml version="1.0" encoding="UTF-8" standalone="no"?>
<!DOCTYPE svg PUBLIC "-//W3C//DTD SVG 1.1//EN" "http://www.w3.org/Graphics/SVG/1.1/DTD/svg11.dtd">
<svg width="100%" height="100%" viewBox="0 0 59 59" version="1.1" xmlns="http://www.w3.org/2000/svg" xmlns:xlink="http://www.w3.org/1999/xlink" xml:space="preserve" style="fill-rule:evenodd;clip-rule:evenodd;stroke-linejoin:round;stroke-miterlimit:1.41421;">
    <g transform="matrix(0.991172,0,0,0.991172,-870.391,-1137.72)">
        <clipPath id="_clip1">
            <rect x="878.144" y="1147.79" width="59.526" height="59.654"/>
        </clipPath>
        <g clip-path="url(#_clip1)">
            <path d="M928.334,1193.2C927.016,1192.76 925.592,1192.36 924.088,1192.02C925.424,1188.1 926.195,1183.71 926.338,1179.15L934.654,1179.15C934.363,1184.54 932.469,1189.51 929.443,1193.6C929.087,1193.46 928.719,1193.33 928.334,1193.2M918.164,1202.43C919.234,1201.27 920.239,1199.93 921.156,1198.4C921.834,1197.28 922.448,1196.08 923,1194.82C924.565,1195.17 926.032,1195.57 927.385,1196.02C927.393,1196.02 927.399,1196.03 927.406,1196.03C924.83,1198.77 921.685,1200.96 918.164,1202.43M909.43,1204.3L909.43,1193.32C913.152,1193.39 916.728,1193.71 919.997,1194.25C919.57,1195.16 919.107,1196.04 918.608,1196.87C916.063,1201.1 912.849,1203.68 909.43,1204.3M906.454,1186.24L906.454,1190.34C902.243,1190.41 898.19,1190.78 894.516,1191.42C893.207,1187.72 892.445,1183.53 892.3,1179.15L899.291,1179.15L899.291,1176.17L892.296,1176.17C892.431,1171.77 893.185,1167.57 894.491,1163.86C898.171,1164.51 902.232,1164.88 906.454,1164.94L906.454,1169L909.43,1169L909.43,1164.94C913.57,1164.87 917.554,1164.5 921.17,1163.86C922.474,1167.57 923.229,1171.77 923.364,1176.17L916.524,1176.17L916.524,1179.15L923.362,1179.15C923.218,1183.53 922.454,1187.72 921.142,1191.42C917.536,1190.79 913.56,1190.42 909.43,1190.35L909.43,1186.24L906.454,1186.24ZM906.454,1204.34C902.95,1203.79 899.656,1201.19 897.053,1196.87C896.554,1196.04 896.092,1195.16 895.664,1194.25C898.997,1193.7 902.652,1193.38 906.454,1193.32L906.454,1204.34ZM888.373,1195.99C889.697,1195.55 891.136,1195.16 892.662,1194.82C893.213,1196.08 893.827,1197.28 894.502,1198.4C895.392,1199.88 896.363,1201.19 897.397,1202.32C893.962,1200.85 890.893,1198.68 888.373,1195.99M886.339,1193.55C883.333,1189.47 881.452,1184.52 881.161,1179.15L889.322,1179.15C889.464,1183.71 890.238,1188.1 891.575,1192.02C890.069,1192.36 888.646,1192.76 887.325,1193.2C886.984,1193.32 886.657,1193.43 886.339,1193.55M886.382,1161.76C886.688,1161.87 887,1161.98 887.325,1162.09C888.64,1162.53 890.054,1162.92 891.55,1163.27C890.219,1167.2 889.45,1171.59 889.319,1176.17L881.164,1176.17C881.464,1170.79 883.361,1165.83 886.382,1161.76M897.171,1153.14C896.22,1154.22 895.328,1155.44 894.502,1156.81C893.813,1157.95 893.19,1159.18 892.631,1160.46C891.136,1160.13 889.728,1159.75 888.426,1159.32C890.882,1156.71 893.852,1154.6 897.171,1153.14M905.947,1150.97C906.116,1150.95 906.284,1150.95 906.454,1150.93L906.454,1161.97C902.638,1161.91 898.973,1161.59 895.632,1161.04C896.065,1160.1 896.54,1159.2 897.053,1158.35C899.527,1154.23 902.632,1151.67 905.947,1150.97M909.43,1150.94C909.502,1150.95 909.572,1150.95 909.642,1150.95C912.983,1151.64 916.114,1154.2 918.608,1158.35C919.121,1159.2 919.594,1160.1 920.03,1161.04C916.752,1161.58 913.162,1161.9 909.43,1161.97L909.43,1150.94ZM927.352,1159.28C926.02,1159.73 924.569,1160.12 923.029,1160.46C922.472,1159.18 921.847,1157.95 921.156,1156.81C920.305,1155.39 919.377,1154.13 918.392,1153.03C921.796,1154.49 924.84,1156.63 927.352,1159.28M929.399,1161.71C932.443,1165.79 934.349,1170.77 934.651,1176.17L926.342,1176.17C926.209,1171.59 925.441,1167.2 924.109,1163.27C925.607,1162.92 927.022,1162.53 928.334,1162.09C928.703,1161.96 929.059,1161.84 929.399,1161.71M910.032,1148C909.308,1147.86 908.573,1147.79 907.83,1147.79C907.05,1147.79 906.281,1147.87 905.521,1148.02C890.222,1149.24 878.143,1162.07 878.143,1177.68C878.143,1194.1 891.497,1207.45 907.909,1207.45C924.318,1207.45 937.67,1194.1 937.67,1177.68C937.67,1161.99 925.455,1149.09 910.032,1148" style="fill:rgb(242,111,34);fill-rule:nonzero;"/>
        </g>
    </g>
</svg>
