<?xml version="1.0" encoding="UTF-8" standalone="no"?>
<!DOCTYPE svg PUBLIC "-//W3C//DTD SVG 1.1//EN" "http://www.w3.org/Graphics/SVG/1.1/DTD/svg11.dtd">
<svg width="100%" height="100%" viewBox="0 0 59 59" version="1.1" xmlns="http://www.w3.org/2000/svg" xmlns:xlink="http://www.w3.org/1999/xlink" xml:space="preserve" style="fill-rule:evenodd;clip-rule:evenodd;stroke-linejoin:round;stroke-miterlimit:1.41421;">
    <g transform="matrix(0.955013,0,0,0.955013,-214.108,-1095.24)">
        <clipPath id="_clip1">
            <rect x="224.194" y="1147.66" width="61.78" height="60.123"/>
        </clipPath>
        <g clip-path="url(#_clip1)">
            <path d="M282.277,1192.45L281.854,1191.85C281.784,1191.75 281.705,1191.58 281.678,1191.46C281.485,1190.63 281.194,1189.84 280.823,1189.1C280.768,1188.99 280.634,1188.95 280.526,1189.01L277.072,1190.86C276.964,1190.91 276.884,1191.02 276.889,1191.1C276.892,1191.15 276.893,1191.19 276.893,1191.24C276.893,1192.6 275.791,1193.7 274.431,1193.7C273.904,1193.7 273.418,1193.54 273.017,1193.26C272.917,1193.19 272.755,1193.17 272.647,1193.23L261.953,1198.96C261.845,1199.01 261.805,1199.15 261.866,1199.25C262.889,1201.04 264.409,1202.5 266.237,1203.45C266.345,1203.51 266.466,1203.65 266.501,1203.77L267.7,1207.56C267.736,1207.68 267.865,1207.78 267.988,1207.78L276.194,1207.78C276.317,1207.78 276.384,1207.68 276.343,1207.57L275.158,1204.15C275.117,1204.04 275.177,1203.91 275.291,1203.86C277.643,1202.89 279.577,1201.12 280.745,1198.88C280.802,1198.77 280.946,1198.68 281.068,1198.68L283.07,1198.68C283.192,1198.68 283.277,1198.58 283.259,1198.46L282.437,1192.86C282.419,1192.73 282.347,1192.56 282.277,1192.45M281.273,1197.13L280.846,1197.13L280.105,1197.13C279.982,1197.13 279.839,1197.22 279.784,1197.33L279.455,1197.99C278.429,1200.06 276.677,1201.66 274.525,1202.5L273.334,1202.96C273.22,1203 273.16,1203.13 273.199,1203.25L273.619,1204.45L274.16,1206.01C274.201,1206.13 274.134,1206.22 274.01,1206.22L269.126,1206.22C269.004,1206.22 268.875,1206.13 268.837,1206.01L267.916,1203.09L267.784,1202.67C267.746,1202.55 267.628,1202.41 267.518,1202.36L267.124,1202.16C265.96,1201.59 264.944,1200.78 264.127,1199.8C264.049,1199.7 264.076,1199.58 264.184,1199.52L272.6,1195.01C272.708,1194.96 272.887,1194.95 273.001,1194.99C273.454,1195.17 273.938,1195.26 274.431,1195.26C276.34,1195.26 277.942,1193.92 278.347,1192.13C278.374,1192.01 278.478,1191.87 278.586,1191.81L279.959,1191.07C280.058,1191.38 280.141,1191.68 280.207,1192C280.207,1192 280.222,1192.06 280.24,1192.15C280.258,1192.24 280.313,1192.36 280.364,1192.44L280.456,1192.57L280.795,1193.05C280.866,1193.15 280.936,1193.33 280.954,1193.45L281.462,1196.91C281.48,1197.03 281.395,1197.13 281.273,1197.13" style="fill:rgb(242,111,34);fill-rule:nonzero;"/>
            <path d="M285.947,1184.86L285.476,1183.98C285.419,1183.87 285.284,1183.83 285.176,1183.89L281.315,1185.96C281.207,1186.02 281.063,1185.98 280.993,1185.88C278.862,1182.89 275.374,1180.94 271.422,1180.94C264.932,1180.94 259.672,1185.53 259.672,1192.02C259.672,1193.38 260.784,1197.25 261.064,1198.19C261.098,1198.31 261.215,1198.36 261.323,1198.3L285.856,1185.16C285.964,1185.11 286.006,1184.97 285.947,1184.86M279.481,1186.82L262.288,1196.03C262.18,1196.08 262.065,1196.03 262.034,1195.91C261.607,1194.32 261.224,1192.65 261.224,1192.02C261.224,1189.36 262.268,1186.94 264.166,1185.19C266.052,1183.45 268.629,1182.49 271.422,1182.49C274.616,1182.49 277.616,1183.99 279.543,1186.53C279.619,1186.63 279.589,1186.76 279.481,1186.82" style="fill:rgb(242,111,34);fill-rule:nonzero;"/>
            <path d="M246.961,1192.31C246.897,1192.21 246.828,1192.02 246.805,1191.9C246.619,1190.88 246.289,1189.92 245.841,1189.02C245.787,1188.91 245.659,1188.88 245.557,1188.95L243.556,1190.33C243.455,1190.4 243.427,1190.54 243.479,1190.65C243.608,1190.93 243.682,1191.23 243.682,1191.55C243.682,1192.72 242.738,1193.66 241.576,1193.66C240.982,1193.66 240.446,1193.41 240.064,1193.02C239.979,1192.93 239.837,1192.91 239.735,1192.98L228.056,1201.06C227.956,1201.13 227.941,1201.26 228.024,1201.35C229.117,1202.53 230.464,1203.46 231.979,1204.06C232.093,1204.11 232.214,1204.24 232.25,1204.36L233.23,1207.57C233.266,1207.69 233.393,1207.78 233.516,1207.78L240.725,1207.78C240.847,1207.78 240.917,1207.69 240.882,1207.57L239.903,1204.37C239.867,1204.26 239.93,1204.13 240.044,1204.08C243.443,1202.75 246.01,1199.76 246.76,1196.11C246.784,1195.99 246.902,1195.89 247.024,1195.89L247.158,1195.89C247.28,1195.89 247.471,1195.85 247.585,1195.8L248.629,1195.38C248.743,1195.33 248.782,1195.21 248.716,1195.11L247.666,1193.43L246.961,1192.31ZM245.654,1194.77L245.494,1195.65C244.884,1198.96 242.539,1201.74 239.375,1202.91L238.405,1203.28C238.291,1203.32 238.227,1203.45 238.262,1203.56L238.565,1204.55L239.081,1206.24C239.117,1206.35 239.047,1206.45 238.925,1206.45L234.502,1206.45C234.379,1206.45 234.251,1206.35 234.216,1206.24L233.459,1203.76L233.332,1203.34C233.296,1203.22 233.175,1203.09 233.061,1203.05L232.654,1202.9C231.754,1202.56 230.906,1202.08 230.146,1201.49C230.048,1201.42 230.053,1201.3 230.153,1201.23L239.66,1194.65C239.761,1194.58 239.927,1194.57 240.037,1194.63C240.508,1194.87 241.031,1194.99 241.576,1194.99C243.47,1194.99 245.012,1193.45 245.012,1191.55C245.012,1191.43 245.007,1191.31 244.994,1191.2C244.982,1191.08 245.008,1190.95 245.062,1190.91C245.116,1190.87 245.192,1190.94 245.229,1191.05C245.357,1191.47 245.459,1191.9 245.53,1192.34C245.53,1192.34 245.539,1192.39 245.551,1192.47C245.563,1192.54 245.605,1192.65 245.644,1192.71L245.716,1192.83L246.538,1194.14L246.682,1194.37C246.746,1194.47 246.7,1194.56 246.577,1194.56L245.917,1194.56C245.794,1194.56 245.677,1194.65 245.654,1194.77" style="fill:rgb(242,111,34);fill-rule:nonzero;"/>
            <path d="M225.032,1196.37L242.726,1184.12C242.828,1184.05 242.833,1183.93 242.737,1183.85C240.827,1182.33 238.348,1181.55 235.775,1181.55C234.9,1181.55 234.014,1181.64 233.137,1181.82C226.975,1183.08 223.174,1188.84 224.435,1195C224.525,1195.44 224.641,1195.87 224.779,1196.28C224.816,1196.4 224.932,1196.43 225.032,1196.37M233.404,1183.12C234.188,1182.96 234.986,1182.88 235.775,1182.88C237.43,1182.88 238.999,1183.24 240.35,1183.9C240.461,1183.96 240.467,1184.06 240.367,1184.13L225.844,1194.18C225.743,1194.26 225.646,1194.21 225.628,1194.09C225.286,1191.68 225.803,1189.29 227.113,1187.31C228.538,1185.15 230.771,1183.66 233.404,1183.12" style="fill:rgb(242,111,34);fill-rule:nonzero;"/>
            <path d="M231.754,1197.68L232.241,1197.35C232.343,1197.28 232.415,1197.21 232.405,1197.19C232.393,1197.17 232.466,1197.11 232.567,1197.04L233.743,1196.22C233.843,1196.15 233.932,1196.11 233.941,1196.12C233.95,1196.13 234.039,1196.08 234.139,1196.01L234.628,1195.68C234.728,1195.61 234.803,1195.54 234.793,1195.53C234.784,1195.52 234.859,1195.45 234.959,1195.38L246.226,1187.58C246.326,1187.51 246.352,1187.37 246.281,1187.27L244.178,1184.23C244.108,1184.13 243.97,1184.11 243.869,1184.17L224.527,1197.56C224.427,1197.63 224.402,1197.77 224.471,1197.87L226.576,1200.91C226.645,1201.01 226.783,1201.04 226.883,1200.97L231.35,1197.88C231.452,1197.81 231.542,1197.76 231.553,1197.78C231.562,1197.79 231.653,1197.75 231.754,1197.68M231.506,1195.88L230.921,1195.03C230.852,1194.93 230.878,1194.79 230.978,1194.72L232.156,1193.9C232.256,1193.83 232.394,1193.86 232.463,1193.96L233.048,1194.81C233.117,1194.91 233.092,1195.05 232.991,1195.12L231.815,1195.94C231.713,1196.01 231.577,1195.98 231.506,1195.88M233.371,1193.06L234.548,1192.25C234.649,1192.18 234.787,1192.2 234.856,1192.3L235.441,1193.16C235.51,1193.26 235.484,1193.4 235.384,1193.47L234.206,1194.28C234.106,1194.35 233.968,1194.33 233.899,1194.22L233.314,1193.37C233.245,1193.27 233.27,1193.13 233.371,1193.06M240.169,1190.15L238.991,1190.97C238.891,1191.04 238.753,1191.01 238.684,1190.91L238.099,1190.06C238.03,1189.96 238.055,1189.82 238.156,1189.75L239.332,1188.93C239.434,1188.87 239.57,1188.89 239.641,1188.99L240.226,1189.85C240.295,1189.95 240.269,1190.09 240.169,1190.15M240.548,1188.09L241.724,1187.28C241.825,1187.21 241.963,1187.24 242.032,1187.34L242.617,1188.19C242.687,1188.29 242.662,1188.43 242.56,1188.5L241.384,1189.31C241.283,1189.38 241.145,1189.36 241.076,1189.26L240.491,1188.4C240.422,1188.3 240.448,1188.16 240.548,1188.09M237.776,1191.81L236.599,1192.62C236.498,1192.69 236.36,1192.67 236.291,1192.57L235.706,1191.71C235.637,1191.61 235.663,1191.48 235.763,1191.4L236.939,1190.59C237.041,1190.52 237.178,1190.55 237.248,1190.65L237.833,1191.5C237.902,1191.6 237.877,1191.74 237.776,1191.81M244.375,1187.24L243.776,1187.66C243.676,1187.73 243.538,1187.7 243.469,1187.6L242.884,1186.75C242.815,1186.65 242.84,1186.51 242.941,1186.44L243.532,1186.03C243.634,1185.96 243.772,1185.98 243.841,1186.08L244.43,1186.93C244.499,1187.04 244.475,1187.17 244.375,1187.24M226.379,1197.9L227.371,1197.21C227.471,1197.15 227.609,1197.17 227.678,1197.27L228.263,1198.12C228.332,1198.23 228.307,1198.37 228.206,1198.43L227.221,1199.12C227.121,1199.19 226.983,1199.16 226.912,1199.06L226.322,1198.21C226.253,1198.11 226.279,1197.97 226.379,1197.9M229.114,1197.54L228.529,1196.68C228.46,1196.58 228.485,1196.44 228.586,1196.37L229.763,1195.56C229.864,1195.49 230.002,1195.52 230.071,1195.62L230.656,1196.47C230.725,1196.57 230.699,1196.71 230.599,1196.78L229.423,1197.59C229.321,1197.66 229.184,1197.64 229.114,1197.54" style="fill:rgb(242,111,34);fill-rule:nonzero;"/>
            <path d="M257.847,1173C256.367,1173 255.125,1171.95 254.832,1170.55L240.293,1170.55C238.122,1170.55 236.357,1168.79 236.357,1166.62C236.357,1164.97 237.41,1163.49 238.924,1162.93C238.923,1162.88 238.923,1162.83 238.923,1162.78C238.923,1158.5 242.408,1155.01 246.692,1155.01C247.013,1155.01 247.335,1155.03 247.656,1155.07C249.329,1150.62 253.569,1147.66 258.37,1147.66C264.683,1147.66 269.817,1152.79 269.817,1159.1C269.817,1160.42 269.597,1161.71 269.157,1162.94C270.656,1163.51 271.682,1164.96 271.682,1166.62C271.682,1168.79 269.916,1170.55 267.745,1170.55L260.862,1170.55C260.571,1171.95 259.327,1173 257.847,1173M246.692,1156.26C243.093,1156.26 240.165,1159.18 240.165,1162.78C240.165,1162.95 240.174,1163.13 240.191,1163.33L240.236,1163.87L239.706,1163.99C238.485,1164.26 237.6,1165.36 237.6,1166.62C237.6,1168.1 238.808,1169.31 240.293,1169.31L256.01,1169.31L256.011,1169.93C256.014,1170.94 256.838,1171.76 257.847,1171.76C258.856,1171.76 259.68,1170.94 259.683,1169.93L259.684,1169.31L267.745,1169.31C269.231,1169.31 270.439,1168.1 270.439,1166.62C270.439,1165.31 269.505,1164.19 268.219,1163.97L267.45,1163.83L267.757,1163.11C268.299,1161.84 268.575,1160.49 268.575,1159.1C268.575,1153.48 263.997,1148.9 258.37,1148.9C253.931,1148.9 250.029,1151.74 248.663,1155.96L248.493,1156.48L247.952,1156.38C247.536,1156.3 247.112,1156.26 246.692,1156.26" style="fill:rgb(242,111,34);fill-rule:nonzero;"/>
            <path d="M241.935,1181.33C240.678,1181.33 239.657,1180.3 239.657,1179.05C239.657,1177.79 240.678,1176.77 241.935,1176.77C243.192,1176.77 244.214,1177.79 244.214,1179.05C244.214,1180.3 243.192,1181.33 241.935,1181.33M241.935,1177.6C241.136,1177.6 240.485,1178.25 240.485,1179.05C240.485,1179.85 241.136,1180.5 241.935,1180.5C242.735,1180.5 243.386,1179.85 243.386,1179.05C243.386,1178.25 242.735,1177.6 241.935,1177.6" style="fill:rgb(242,111,34);fill-rule:nonzero;"/>
            <path d="M259.753,1178.04C258.382,1178.04 257.266,1176.92 257.266,1175.55C257.266,1174.18 258.382,1173.07 259.753,1173.07C261.124,1173.07 262.24,1174.18 262.24,1175.55C262.24,1176.92 261.124,1178.04 259.753,1178.04M259.753,1174.31C259.068,1174.31 258.51,1174.87 258.51,1175.55C258.51,1176.24 259.068,1176.8 259.753,1176.8C260.439,1176.8 260.996,1176.24 260.996,1175.55C260.996,1174.87 260.439,1174.31 259.753,1174.31" style="fill:rgb(242,111,34);fill-rule:nonzero;"/>
            <path d="M261.205,1181.36C260.464,1181.36 259.861,1180.76 259.861,1180.02C259.861,1179.28 260.464,1178.67 261.205,1178.67C261.946,1178.67 262.549,1179.28 262.549,1180.02C262.549,1180.76 261.946,1181.36 261.205,1181.36M261.205,1179.5C260.921,1179.5 260.691,1179.73 260.691,1180.02C260.691,1180.3 260.921,1180.53 261.205,1180.53C261.488,1180.53 261.719,1180.3 261.719,1180.02C261.719,1179.73 261.488,1179.5 261.205,1179.5" style="fill:rgb(242,111,34);fill-rule:nonzero;"/>
            <path d="M244.203,1176.17C242.609,1176.17 241.312,1174.88 241.312,1173.28C241.312,1171.69 242.609,1170.39 244.203,1170.39C245.797,1170.39 247.094,1171.69 247.094,1173.28C247.094,1174.88 245.797,1176.17 244.203,1176.17M244.203,1171.64C243.294,1171.64 242.556,1172.38 242.556,1173.28C242.556,1174.19 243.294,1174.93 244.203,1174.93C245.112,1174.93 245.85,1174.19 245.85,1173.28C245.85,1172.38 245.112,1171.64 244.203,1171.64" style="fill:rgb(242,111,34);fill-rule:nonzero;"/>
            <path d="M250.449,1157.8L250.449,1159.44L253.405,1159.44L254.592,1160.63L255.777,1159.44L258.734,1159.44L258.734,1157.8L250.449,1157.8ZM255.97,1163.96C255.97,1164.22 255.763,1164.43 255.507,1164.43L253.677,1164.43C253.42,1164.43 253.212,1164.22 253.212,1163.96L253.212,1161.06L250.449,1161.06L250.449,1162.54L251.163,1163.25L251.163,1164.61C251.163,1165.41 251.816,1166.06 252.621,1166.06L256.562,1166.06C257.367,1166.06 258.02,1165.41 258.02,1164.61L258.02,1163.25L258.734,1162.54L258.734,1161.06L255.97,1161.06L255.97,1163.96Z" style="fill:rgb(242,111,34);fill-rule:nonzero;"/>
        </g>
    </g>
</svg>
