<?xml version="1.0" encoding="UTF-8" standalone="no"?>
<!DOCTYPE svg PUBLIC "-//W3C//DTD SVG 1.1//EN" "http://www.w3.org/Graphics/SVG/1.1/DTD/svg11.dtd">
<svg width="100%" height="100%" viewBox="0 0 59 59" version="1.1" xmlns="http://www.w3.org/2000/svg" xmlns:xlink="http://www.w3.org/1999/xlink" xml:space="preserve" style="fill-rule:evenodd;clip-rule:evenodd;stroke-linejoin:round;stroke-miterlimit:1.41421;">
    <g transform="matrix(0.89798,0,0,0.89798,3.00958,3.0094)">
        <g transform="matrix(1,0,0,1,-1203.42,-1147.49)">
            <path d="M1251.84,1149.74L1250.92,1169.15L1249.25,1169.15L1248.34,1149.74L1244.23,1149.74L1243.33,1168.81L1230.16,1160.63L1230.16,1168.2L1217.97,1160.63L1217.97,1168.2L1205.77,1160.63L1205.77,1180.74L1200.07,1184.59L1200.07,1203.94L1213.73,1203.94L1214.93,1202.16L1210.78,1200.87L1213.96,1197.9L1210.2,1195.72L1213.96,1193.54L1210.78,1190.57L1214.93,1189.28L1212.49,1185.67L1216.83,1185.34L1215.25,1181.29L1219.55,1181.93L1218.91,1177.62L1222.97,1179.2L1223.3,1174.86L1226.9,1177.31L1228.19,1173.15L1231.16,1176.34L1233.35,1172.57L1235.53,1176.34L1238.5,1173.15L1239.79,1177.31L1243.39,1174.86L1243.72,1179.2L1247.78,1177.62L1247.14,1181.93L1251.44,1181.29L1249.86,1185.34L1254.2,1185.67L1251.76,1189.28L1255.91,1190.57L1252.73,1193.54L1256.49,1195.72L1252.73,1197.9L1255.91,1200.87L1251.76,1202.16L1252.96,1203.94L1265.77,1203.94L1265.77,1184.59L1259.62,1180.29L1259.62,1169.15L1256.85,1169.15L1255.94,1149.74L1251.84,1149.74Z" style="fill:rgb(242,111,34);fill-rule:nonzero;"/>
        </g>
        <g transform="matrix(1,0,0,1,-1203.42,-1147.49)">
            <clipPath id="_clip1">
                <rect x="1200.07" y="1149.74" width="65.703" height="54.503"/>
            </clipPath>
            <g clip-path="url(#_clip1)">
                <path d="M1236.38,1198.97C1236.38,1199.61 1235.86,1200.13 1235.21,1200.13L1230.63,1200.13C1229.99,1200.13 1229.47,1199.61 1229.47,1198.97L1229.47,1191.66L1222.54,1191.66L1222.54,1195.38L1224.33,1197.17L1224.33,1200.59C1224.33,1202.61 1225.97,1204.24 1227.98,1204.24L1237.86,1204.24C1239.88,1204.24 1241.52,1202.61 1241.52,1200.59L1241.52,1197.17L1243.31,1195.38L1243.31,1191.66L1236.38,1191.66L1236.38,1198.97ZM1222.54,1183.48L1222.54,1187.61L1229.95,1187.61L1232.92,1190.58L1235.89,1187.61L1243.31,1187.61L1243.31,1183.48L1222.54,1183.48Z" style="fill:rgb(242,111,34);fill-rule:nonzero;"/>
            </g>
        </g>
    </g>
</svg>
