<?xml version="1.0" encoding="UTF-8" standalone="no"?>
<!DOCTYPE svg PUBLIC "-//W3C//DTD SVG 1.1//EN" "http://www.w3.org/Graphics/SVG/1.1/DTD/svg11.dtd">
<svg width="100%" height="100%" viewBox="0 0 60 60" version="1.1" xmlns="http://www.w3.org/2000/svg" xmlns:xlink="http://www.w3.org/1999/xlink" xml:space="preserve" style="fill-rule:evenodd;clip-rule:evenodd;stroke-linejoin:round;stroke-miterlimit:1.41421;">
    <g transform="matrix(0.894328,2.46519e-32,2.46519e-32,0.894328,-780.632,-838.153)">
        <clipPath id="_clip1">
            <rect x="872.87" y="941.227" width="67.09" height="59.01"/>
        </clipPath>
        <g clip-path="url(#_clip1)">
            <path d="M891.928,995.824L920.902,995.824L935.388,970.732L920.902,945.64L891.928,945.64L877.442,970.732L891.928,995.824ZM921.545,1000.24L891.285,1000.24C890.146,1000.24 888.998,999.574 888.428,998.588L873.297,972.381C872.728,971.397 872.727,970.07 873.298,969.082L888.428,942.876C888.998,941.89 890.146,941.226 891.285,941.226L921.545,941.226C922.684,941.226 923.831,941.89 924.401,942.876L939.533,969.083C940.102,970.07 940.102,971.397 939.531,972.383L924.402,998.588C923.831,999.574 922.684,1000.24 921.545,1000.24" style="fill:rgb(242,111,34);fill-rule:nonzero;"/>
            <path d="M928.935,969.611L918.646,951.79C918.259,951.119 917.477,950.669 916.703,950.669L896.126,950.669C895.352,950.669 894.572,951.119 894.183,951.79L883.895,969.611C883.508,970.282 883.508,971.184 883.895,971.854L894.184,989.675C894.572,990.346 895.352,990.796 896.126,990.796L916.703,990.796C917.477,990.796 918.259,990.346 918.646,989.675L928.934,971.855C929.323,971.184 929.323,970.282 928.935,969.611M916.924,972.281L915.109,974.089L915.109,977.536C915.109,979.593 913.456,981.24 911.414,981.24L901.412,981.24C899.375,981.24 897.713,979.593 897.713,977.536L897.713,974.089L895.905,972.281L895.905,968.513L902.917,968.513L902.917,975.912C902.917,976.558 903.437,977.087 904.096,977.087L908.735,977.087C909.381,977.087 909.913,976.558 909.913,975.912L909.913,968.513L916.924,968.513L916.924,972.281ZM916.924,964.408L909.423,964.408L906.413,967.422L903.404,964.408L895.905,964.408L895.905,960.225L916.924,960.225L916.924,964.408Z" style="fill:rgb(242,111,34);fill-rule:nonzero;"/>
        </g>
    </g>
</svg>
